Griffith_Gothic-Condensed_Thin.ufo
<glyph name="exclam" format="1">
  <advance width="190"/>
  <unicode hex="0021"/>
  <outline>
    <contour>
      <point x="117" y="720" type="line"/>
      <point x="104" y="178" type="line"/>
      <point x="86" y="178" type="line"/>
      <point x="73" y="720" type="line"/>
    </contour>
    <contour>
      <point x="127" y="25" type="curve" smooth="yes"/>
      <point x="127" y="6"/>
      <point x="114" y="-7"/>
      <point x="95" y="-7" type="curve" smooth="yes"/>
      <point x="76" y="-7"/>
      <point x="63" y="6"/>
      <point x="63" y="25" type="curve" smooth="yes"/>
      <point x="63" y="44"/>
      <point x="76" y="57"/>
      <point x="95" y="57" type="curve" smooth="yes"/>
      <point x="114" y="57"/>
      <point x="127" y="44"/>
    </contour>
  </outline>
</glyph>
<glyph name="quotedbl" format="1">
  <advance width="250"/>
  <unicode hex="0022"/>
  <outline>
    <contour>
      <point x="201" y="720" type="line"/>
      <point x="188" y="537" type="line"/>
      <point x="172" y="537" type="line"/>
      <point x="159" y="720" type="line"/>
    </contour>
    <contour>
      <point x="91" y="720" type="line"/>
      <point x="78" y="537" type="line"/>
      <point x="62" y="537" type="line"/>
      <point x="49" y="720" type="line"/>
    </contour>
  </outline>
</glyph>
<glyph name="numbersign" format="1">
  <advance width="470"/>
  <unicode hex="0023"/>
  <outline>
    <contour>
      <point x="448" y="471" type="line"/>
      <point x="354" y="471" type="line"/>
      <point x="325" y="249" type="line"/>
      <point x="421" y="249" type="line"/>
      <point x="421" y="219" type="line"/>
      <point x="321" y="219" type="line"/>
      <point x="292" y="0" type="line"/>
      <point x="259" y="0" type="line"/>
      <point x="288" y="219" type="line"/>
      <point x="145" y="219" type="line"/>
      <point x="116" y="0" type="line"/>
      <point x="83" y="0" type="line"/>
      <point x="112" y="219" type="line"/>
      <point x="22" y="219" type="line"/>
      <point x="22" y="249" type="line"/>
      <point x="116" y="249" type="line"/>
      <point x="145" y="471" type="line"/>
      <point x="49" y="471" type="line"/>
      <point x="49" y="501" type="line"/>
      <point x="149" y="501" type="line"/>
      <point x="178" y="720" type="line"/>
      <point x="211" y="720" type="line"/>
      <point x="182" y="501" type="line"/>
      <point x="325" y="501" type="line"/>
      <point x="354" y="720" type="line"/>
      <point x="387" y="720" type="line"/>
      <point x="358" y="501" type="line"/>
      <point x="448" y="501" type="line"/>
    </contour>
    <contour>
      <point x="321" y="471" type="line"/>
      <point x="178" y="471" type="line"/>
      <point x="149" y="249" type="line"/>
      <point x="292" y="249" type="line"/>
    </contour>
  </outline>
</glyph>
<glyph name="dollar" format="1">
  <advance width="415"/>
  <unicode hex="0024"/>
  <outline>
    <contour>
      <point x="384" y="179" type="curve" smooth="yes"/>
      <point x="384" y="67"/>
      <point x="311" y="5"/>
      <point x="225" y="-1" type="curve"/>
      <point x="225" y="-95" type="line"/>
      <point x="195" y="-95" type="line"/>
      <point x="195" y="-1" type="line"/>
      <point x="125" y="3"/>
      <point x="73" y="38"/>
      <point x="28" y="100" type="curve"/>
      <point x="53" y="123" type="line"/>
      <point x="93" y="65"/>
      <point x="137" y="32"/>
      <point x="195" y="28" type="curve"/>
      <point x="195" y="364" type="line"/>
      <point x="103" y="405"/>
      <point x="46" y="461"/>
      <point x="46" y="556" type="curve" smooth="yes"/>
      <point x="46" y="651"/>
      <point x="111" y="716"/>
      <point x="195" y="721" type="curve"/>
      <point x="195" y="762" type="line"/>
      <point x="225" y="762" type="line"/>
      <point x="225" y="721" type="line"/>
      <point x="284" y="716"/>
      <point x="328" y="686"/>
      <point x="371" y="630" type="curve"/>
      <point x="346" y="607" type="line"/>
      <point x="308" y="660"/>
      <point x="270" y="687"/>
      <point x="225" y="692" type="curve"/>
      <point x="225" y="390" type="line"/>
      <point x="338" y="338"/>
      <point x="384" y="277"/>
    </contour>
    <contour>
      <point x="195" y="404" type="curve"/>
      <point x="195" y="692" type="line"/>
      <point x="125" y="687"/>
      <point x="83" y="634"/>
      <point x="83" y="559" type="curve" smooth="yes"/>
      <point x="83" y="485"/>
      <point x="120" y="440"/>
    </contour>
    <contour>
      <point x="347" y="176" type="curve" smooth="yes"/>
      <point x="347" y="254"/>
      <point x="319" y="303"/>
      <point x="225" y="350" type="curve"/>
      <point x="225" y="27" type="line"/>
      <point x="302" y="34"/>
      <point x="347" y="87"/>
    </contour>
  </outline>
</glyph>
<glyph name="percent" format="1">
  <advance width="570"/>
  <unicode hex="0025"/>
  <outline>
    <contour>
      <point x="270" y="559" type="curve" smooth="yes"/>
      <point x="270" y="458"/>
      <point x="216" y="391"/>
      <point x="148" y="391" type="curve" smooth="yes"/>
      <point x="81" y="391"/>
      <point x="28" y="458"/>
      <point x="28" y="559" type="curve" smooth="yes"/>
      <point x="28" y="660"/>
      <point x="82" y="727"/>
      <point x="150" y="727" type="curve" smooth="yes"/>
      <point x="217" y="727"/>
      <point x="270" y="660"/>
    </contour>
    <contour>
      <point x="234" y="558" type="curve" smooth="yes"/>
      <point x="234" y="639"/>
      <point x="204" y="698"/>
      <point x="149" y="698" type="curve" smooth="yes"/>
      <point x="95" y="698"/>
      <point x="64" y="641"/>
      <point x="64" y="560" type="curve" smooth="yes"/>
      <point x="64" y="479"/>
      <point x="94" y="420"/>
      <point x="149" y="420" type="curve" smooth="yes"/>
      <point x="203" y="420"/>
      <point x="234" y="477"/>
    </contour>
    <contour>
      <point x="472" y="720" type="line"/>
      <point x="299" y="353" type="line"/>
      <point x="134" y="0" type="line"/>
      <point x="98" y="0" type="line"/>
      <point x="271" y="367" type="line"/>
      <point x="436" y="720" type="line"/>
    </contour>
    <contour>
      <point x="542" y="161" type="curve" smooth="yes"/>
      <point x="542" y="60"/>
      <point x="488" y="-7"/>
      <point x="420" y="-7" type="curve" smooth="yes"/>
      <point x="353" y="-7"/>
      <point x="300" y="60"/>
      <point x="300" y="161" type="curve" smooth="yes"/>
      <point x="300" y="262"/>
      <point x="354" y="329"/>
      <point x="422" y="329" type="curve" smooth="yes"/>
      <point x="489" y="329"/>
      <point x="542" y="262"/>
    </contour>
    <contour>
      <point x="506" y="160" type="curve" smooth="yes"/>
      <point x="506" y="241"/>
      <point x="476" y="300"/>
      <point x="421" y="300" type="curve" smooth="yes"/>
      <point x="367" y="300"/>
      <point x="336" y="243"/>
      <point x="336" y="162" type="curve" smooth="yes"/>
      <point x="336" y="81"/>
      <point x="366" y="22"/>
      <point x="421" y="22" type="curve" smooth="yes"/>
      <point x="475" y="22"/>
      <point x="506" y="79"/>
    </contour>
  </outline>
</glyph>
<glyph name="ampersand" format="1">
  <advance width="525"/>
  <unicode hex="0026"/>
  <outline>
    <contour>
      <point x="526" y="4" type="line"/>
      <point x="512" y="-3"/>
      <point x="499" y="-6"/>
      <point x="480" y="-6" type="curve" smooth="yes"/>
      <point x="434" y="-6"/>
      <point x="403" y="13"/>
      <point x="357" y="80" type="curve"/>
      <point x="313" y="23"/>
      <point x="261" y="-10"/>
      <point x="202" y="-10" type="curve" smooth="yes"/>
      <point x="100" y="-10"/>
      <point x="31" y="75"/>
      <point x="31" y="191" type="curve" smooth="yes"/>
      <point x="31" y="279"/>
      <point x="70" y="351"/>
      <point x="168" y="418" type="curve"/>
      <point x="139" y="477"/>
      <point x="118" y="536"/>
      <point x="118" y="594" type="curve" smooth="yes"/>
      <point x="118" y="670"/>
      <point x="163" y="732"/>
      <point x="234" y="732" type="curve" smooth="yes"/>
      <point x="301" y="732"/>
      <point x="332" y="676"/>
      <point x="332" y="606" type="curve" smooth="yes"/>
      <point x="332" y="519"/>
      <point x="286" y="463"/>
      <point x="210" y="410" type="curve"/>
      <point x="276" y="283"/>
      <point x="323" y="195"/>
      <point x="361" y="138" type="curve"/>
      <point x="397" y="200"/>
      <point x="428" y="283"/>
      <point x="451" y="376" type="curve"/>
      <point x="479" y="360" type="line"/>
      <point x="453" y="259"/>
      <point x="419" y="174"/>
      <point x="379" y="111" type="curve"/>
      <point x="427" y="39"/>
      <point x="449" y="24"/>
      <point x="484" y="24" type="curve" smooth="yes"/>
      <point x="504" y="24"/>
      <point x="512" y="27"/>
      <point x="526" y="33" type="curve"/>
    </contour>
    <contour>
      <point x="298" y="604" type="curve" smooth="yes"/>
      <point x="298" y="661"/>
      <point x="274" y="703"/>
      <point x="233" y="703" type="curve" smooth="yes"/>
      <point x="179" y="703"/>
      <point x="153" y="650"/>
      <point x="153" y="596" type="curve" smooth="yes"/>
      <point x="153" y="544"/>
      <point x="170" y="490"/>
      <point x="196" y="437" type="curve"/>
      <point x="268" y="486"/>
      <point x="298" y="538"/>
    </contour>
    <contour>
      <point x="340" y="106" type="curve"/>
      <point x="299" y="170"/>
      <point x="246" y="261"/>
      <point x="181" y="391" type="curve"/>
      <point x="98" y="332"/>
      <point x="68" y="271"/>
      <point x="68" y="193" type="curve" smooth="yes"/>
      <point x="68" y="102"/>
      <point x="120" y="19"/>
      <point x="202" y="19" type="curve" smooth="yes"/>
      <point x="254" y="19"/>
      <point x="300" y="51"/>
    </contour>
  </outline>
</glyph>
<glyph name="parenleft" format="1">
  <advance width="232"/>
  <unicode hex="0028"/>
  <outline>
    <contour>
      <point x="204" y="-95" type="curve"/>
      <point x="174" y="-95" type="line"/>
      <point x="110" y="0"/>
      <point x="49" y="135"/>
      <point x="49" y="320" type="curve" smooth="yes"/>
      <point x="49" y="505"/>
      <point x="110" y="640"/>
      <point x="174" y="735" type="curve"/>
      <point x="204" y="735" type="line"/>
      <point x="135" y="625"/>
      <point x="87" y="493"/>
      <point x="87" y="320" type="curve" smooth="yes"/>
      <point x="87" y="147"/>
      <point x="135" y="15"/>
    </contour>
  </outline>
</glyph>
<glyph name="hyphen" format="1">
  <advance width="224"/>
  <unicode hex="002D"/>
  <unicode hex="2010"/>
  <unicode hex="2011"/>
  <outline>
    <contour>
      <point x="203" y="261" type="line"/>
      <point x="31" y="261" type="line"/>
      <point x="31" y="295" type="line"/>
      <point x="203" y="295" type="line"/>
    </contour>
  </outline>
</glyph>
<glyph name="zero" format="1">
  <advance width="466"/>
  <unicode hex="0030"/>
  <outline>
    <contour>
      <point x="421" y="320" type="line" smooth="yes"/>
      <point x="421" y="119"/>
      <point x="349" y="-12"/>
      <point x="233" y="-12" type="curve" smooth="yes"/>
      <point x="115" y="-12"/>
      <point x="45" y="117"/>
      <point x="45" y="318" type="curve" smooth="yes"/>
      <point x="45" y="400" type="line" smooth="yes"/>
      <point x="45" y="601"/>
      <point x="115" y="732"/>
      <point x="233" y="732" type="curve" smooth="yes"/>
      <point x="349" y="732"/>
      <point x="421" y="601"/>
      <point x="421" y="402" type="curve" smooth="yes"/>
    </contour>
    <contour>
      <point x="383" y="316" type="curve" smooth="yes"/>
      <point x="383" y="402" type="line" smooth="yes"/>
      <point x="383" y="566"/>
      <point x="331" y="702"/>
      <point x="233" y="702" type="curve" smooth="yes"/>
      <point x="135" y="702"/>
      <point x="83" y="568"/>
      <point x="83" y="404" type="curve" smooth="yes"/>
      <point x="83" y="318" type="line" smooth="yes"/>
      <point x="83" y="153"/>
      <point x="135" y="18"/>
      <point x="233" y="18" type="curve" smooth="yes"/>
      <point x="331" y="18"/>
      <point x="383" y="151"/>
    </contour>
  </outline>
</glyph>
<glyph name="two" format="1">
  <advance width="432"/>
  <unicode hex="0032"/>
  <outline>
    <contour>
      <point x="382" y="0" type="line"/>
      <point x="51" y="0" type="line"/>
      <point x="51" y="25" type="line"/>
      <point x="79" y="146"/>
      <point x="127" y="225"/>
      <point x="232" y="326" type="curve" smooth="yes"/>
      <point x="301" y="393"/>
      <point x="336" y="449"/>
      <point x="336" y="541" type="curve" smooth="yes"/>
      <point x="336" y="631"/>
      <point x="299" y="702"/>
      <point x="220" y="702" type="curve" smooth="yes"/>
      <point x="150" y="702"/>
      <point x="111" y="652"/>
      <point x="79" y="557" type="curve"/>
      <point x="48" y="570" type="line"/>
      <point x="81" y="672"/>
      <point x="138" y="732"/>
      <point x="221" y="732" type="curve" smooth="yes"/>
      <point x="324" y="732"/>
      <point x="374" y="646"/>
      <point x="374" y="543" type="curve" smooth="yes"/>
      <point x="374" y="434"/>
      <point x="328" y="375"/>
      <point x="247" y="296" type="curve" smooth="yes"/>
      <point x="157" y="209"/>
      <point x="109" y="129"/>
      <point x="89" y="30" type="curve"/>
      <point x="382" y="30" type="line"/>
    </contour>
  </outline>
</glyph>
<glyph name="three" format="1">
  <advance width="400"/>
  <unicode hex="0033"/>
  <outline>
    <contour>
      <point x="364" y="253" type="curve" smooth="yes"/>
      <point x="364" y="88"/>
      <point x="197" y="-8"/>
      <point x="16" y="-6" type="curve"/>
      <point x="16" y="24" type="line"/>
      <point x="192" y="24"/>
      <point x="326" y="109"/>
      <point x="326" y="251" type="curve" smooth="yes"/>
      <point x="326" y="334"/>
      <point x="289" y="375"/>
      <point x="223" y="375" type="curve" smooth="yes"/>
      <point x="188" y="375"/>
      <point x="165" y="369"/>
      <point x="142" y="361" type="curve"/>
      <point x="134" y="389" type="line"/>
      <point x="242" y="443"/>
      <point x="295" y="494"/>
      <point x="295" y="582" type="curve" smooth="yes"/>
      <point x="295" y="651"/>
      <point x="261" y="702"/>
      <point x="198" y="702" type="curve" smooth="yes"/>
      <point x="144" y="702"/>
      <point x="105" y="669"/>
      <point x="67" y="607" type="curve"/>
      <point x="42" y="625" type="line"/>
      <point x="84" y="690"/>
      <point x="130" y="732"/>
      <point x="200" y="732" type="curve" smooth="yes"/>
      <point x="284" y="732"/>
      <point x="333" y="672"/>
      <point x="333" y="587" type="curve" smooth="yes"/>
      <point x="333" y="501"/>
      <point x="283" y="446"/>
      <point x="202" y="402" type="curve"/>
      <point x="203" y="398" type="line"/>
      <point x="292" y="416"/>
      <point x="364" y="368"/>
    </contour>
  </outline>
</glyph>
<glyph name="four" format="1">
  <advance width="440"/>
  <unicode hex="0034"/>
  <outline>
    <contour>
      <point x="407" y="210" type="line"/>
      <point x="331" y="210" type="line"/>
      <point x="331" y="0" type="line"/>
      <point x="295" y="0" type="line"/>
      <point x="295" y="210" type="line"/>
      <point x="34" y="210" type="line"/>
      <point x="34" y="257" type="line"/>
      <point x="275" y="720" type="line"/>
      <point x="331" y="720" type="line"/>
      <point x="331" y="239" type="line"/>
      <point x="407" y="239" type="line"/>
    </contour>
    <contour>
      <point x="295" y="239" type="line"/>
      <point x="295" y="682" type="line"/>
      <point x="287" y="682" type="line"/>
      <point x="64" y="250" type="line"/>
      <point x="64" y="239" type="line"/>
    </contour>
  </outline>
</glyph>
<glyph name="five" format="1">
  <advance width="416"/>
  <unicode hex="0035"/>
  <outline>
    <contour>
      <point x="378" y="242" type="line" smooth="yes"/>
      <point x="378" y="75"/>
      <point x="282" y="-10"/>
      <point x="172" y="-10" type="curve" smooth="yes"/>
      <point x="115" y="-10"/>
      <point x="77" y="0"/>
      <point x="35" y="26" type="curve"/>
      <point x="50" y="56" type="line"/>
      <point x="93" y="28"/>
      <point x="124" y="20"/>
      <point x="173" y="20" type="curve" smooth="yes"/>
      <point x="277" y="20"/>
      <point x="340" y="108"/>
      <point x="340" y="240" type="curve" smooth="yes"/>
      <point x="340" y="242" type="line" smooth="yes"/>
      <point x="340" y="355"/>
      <point x="301" y="420"/>
      <point x="222" y="420" type="curve" smooth="yes"/>
      <point x="174" y="420"/>
      <point x="143" y="394"/>
      <point x="112" y="356" type="curve"/>
      <point x="61" y="356" type="line"/>
      <point x="93" y="720" type="line"/>
      <point x="348" y="720" type="line"/>
      <point x="348" y="690" type="line"/>
      <point x="122" y="690" type="line"/>
      <point x="96" y="383" type="line"/>
      <point x="103" y="383" type="line"/>
      <point x="136" y="424"/>
      <point x="171" y="450"/>
      <point x="227" y="450" type="curve" smooth="yes"/>
      <point x="318" y="450"/>
      <point x="378" y="380"/>
      <point x="378" y="244" type="curve" smooth="yes"/>
    </contour>
  </outline>
</glyph>
<glyph name="six" format="1">
  <advance width="428"/>
  <unicode hex="0036"/>
  <outline>
    <contour>
      <point x="402" y="220" type="curve" smooth="yes"/>
      <point x="402" y="82"/>
      <point x="323" y="-12"/>
      <point x="219" y="-12" type="curve" smooth="yes"/>
      <point x="113" y="-12"/>
      <point x="41" y="77"/>
      <point x="41" y="243" type="curve" smooth="yes"/>
      <point x="41" y="415"/>
      <point x="106" y="586"/>
      <point x="220" y="720" type="curve"/>
      <point x="265" y="720" type="line"/>
      <point x="162" y="607"/>
      <point x="97" y="463"/>
      <point x="80" y="342" type="curve"/>
      <point x="86" y="342" type="line"/>
      <point x="123" y="403"/>
      <point x="163" y="439"/>
      <point x="233" y="439" type="curve" smooth="yes"/>
      <point x="327" y="439"/>
      <point x="402" y="358"/>
    </contour>
    <contour>
      <point x="364" y="218" type="curve" smooth="yes"/>
      <point x="364" y="334"/>
      <point x="312" y="409"/>
      <point x="228" y="409" type="curve" smooth="yes"/>
      <point x="141" y="409"/>
      <point x="79" y="323"/>
      <point x="79" y="217" type="curve" smooth="yes"/>
      <point x="79" y="101"/>
      <point x="135" y="18"/>
      <point x="221" y="18" type="curve" smooth="yes"/>
      <point x="306" y="18"/>
      <point x="364" y="99"/>
    </contour>
  </outline>
</glyph>
<glyph name="seven" format="1">
  <advance width="377"/>
  <unicode hex="0037"/>
  <outline>
    <contour>
      <point x="363" y="695" type="line"/>
      <point x="251" y="512"/>
      <point x="155" y="228"/>
      <point x="123" y="0" type="curve"/>
      <point x="86" y="0" type="line"/>
      <point x="114" y="198"/>
      <point x="211" y="499"/>
      <point x="324" y="690" type="curve"/>
      <point x="16" y="690" type="line"/>
      <point x="16" y="720" type="line"/>
      <point x="363" y="720" type="line"/>
    </contour>
  </outline>
</glyph>
<glyph name="eight" format="1">
  <advance width="456"/>
  <unicode hex="0038"/>
  <outline>
    <contour>
      <point x="414" y="190" type="curve" smooth="yes"/>
      <point x="414" y="60"/>
      <point x="324" y="-12"/>
      <point x="228" y="-12" type="curve" smooth="yes"/>
      <point x="131" y="-12"/>
      <point x="42" y="58"/>
      <point x="42" y="188" type="curve" smooth="yes"/>
      <point x="42" y="289"/>
      <point x="93" y="359"/>
      <point x="159" y="382" type="curve"/>
      <point x="159" y="389" type="line"/>
      <point x="102" y="413"/>
      <point x="57" y="472"/>
      <point x="57" y="554" type="curve" smooth="yes"/>
      <point x="57" y="661"/>
      <point x="133" y="732"/>
      <point x="228" y="732" type="curve" smooth="yes"/>
      <point x="322" y="732"/>
      <point x="398" y="663"/>
      <point x="398" y="556" type="curve" smooth="yes"/>
      <point x="398" y="474"/>
      <point x="353" y="414"/>
      <point x="296" y="389" type="curve"/>
      <point x="296" y="382" type="line"/>
      <point x="362" y="359"/>
      <point x="414" y="291"/>
    </contour>
    <contour>
      <point x="360" y="550" type="curve" smooth="yes"/>
      <point x="360" y="639"/>
      <point x="309" y="702"/>
      <point x="228" y="702" type="curve" smooth="yes"/>
      <point x="146" y="702"/>
      <point x="95" y="641"/>
      <point x="95" y="552" type="curve" smooth="yes"/>
      <point x="95" y="458"/>
      <point x="154" y="396"/>
      <point x="228" y="396" type="curve" smooth="yes"/>
      <point x="301" y="396"/>
      <point x="360" y="456"/>
    </contour>
    <contour>
      <point x="376" y="190" type="curve" smooth="yes"/>
      <point x="376" y="302"/>
      <point x="309" y="372"/>
      <point x="228" y="372" type="curve" smooth="yes"/>
      <point x="146" y="372"/>
      <point x="80" y="304"/>
      <point x="80" y="192" type="curve" smooth="yes"/>
      <point x="80" y="82"/>
      <point x="144" y="18"/>
      <point x="228" y="18" type="curve" smooth="yes"/>
      <point x="312" y="18"/>
      <point x="376" y="80"/>
    </contour>
  </outline>
</glyph>
<glyph name="nine" format="1">
  <advance width="428"/>
  <unicode hex="0039"/>
  <outline>
    <contour>
      <point x="387" y="477" type="curve" smooth="yes"/>
      <point x="387" y="305"/>
      <point x="322" y="134"/>
      <point x="208" y="0" type="curve"/>
      <point x="163" y="0" type="line"/>
      <point x="266" y="113"/>
      <point x="331" y="257"/>
      <point x="348" y="378" type="curve"/>
      <point x="342" y="378" type="line"/>
      <point x="305" y="317"/>
      <point x="265" y="281"/>
      <point x="195" y="281" type="curve" smooth="yes"/>
      <point x="101" y="281"/>
      <point x="26" y="362"/>
      <point x="26" y="500" type="curve" smooth="yes"/>
      <point x="26" y="638"/>
      <point x="105" y="732"/>
      <point x="209" y="732" type="curve" smooth="yes"/>
      <point x="315" y="732"/>
      <point x="387" y="643"/>
    </contour>
    <contour>
      <point x="349" y="503" type="curve" smooth="yes"/>
      <point x="349" y="619"/>
      <point x="293" y="702"/>
      <point x="207" y="702" type="curve" smooth="yes"/>
      <point x="122" y="702"/>
      <point x="64" y="621"/>
      <point x="64" y="502" type="curve" smooth="yes"/>
      <point x="64" y="386"/>
      <point x="116" y="311"/>
      <point x="200" y="311" type="curve" smooth="yes"/>
      <point x="287" y="311"/>
      <point x="349" y="397"/>
    </contour>
  </outline>
</glyph>
<glyph name="colon" format="1">
  <advance width="160"/>
  <unicode hex="003A"/>
  <outline>
    <contour>
      <point x="112" y="484" type="curve" smooth="yes"/>
      <point x="112" y="465"/>
      <point x="99" y="452"/>
      <point x="80" y="452" type="curve" smooth="yes"/>
      <point x="61" y="452"/>
      <point x="48" y="465"/>
      <point x="48" y="484" type="curve" smooth="yes"/>
      <point x="48" y="503"/>
      <point x="61" y="516"/>
      <point x="80" y="516" type="curve" smooth="yes"/>
      <point x="99" y="516"/>
      <point x="112" y="503"/>
    </contour>
    <contour>
      <point x="112" y="25" type="curve" smooth="yes"/>
      <point x="112" y="6"/>
      <point x="99" y="-7"/>
      <point x="80" y="-7" type="curve" smooth="yes"/>
      <point x="61" y="-7"/>
      <point x="48" y="6"/>
      <point x="48" y="25" type="curve" smooth="yes"/>
      <point x="48" y="44"/>
      <point x="61" y="57"/>
      <point x="80" y="57" type="curve" smooth="yes"/>
      <point x="99" y="57"/>
      <point x="112" y="44"/>
    </contour>
  </outline>
</glyph>
<glyph name="less" format="1">
  <advance width="470"/>
  <unicode hex="003C"/>
  <outline>
    <contour>
      <point x="423" y="163" type="line"/>
      <point x="40" y="340" type="line"/>
      <point x="40" y="371" type="line"/>
      <point x="423" y="549" type="line"/>
      <point x="423" y="516" type="line"/>
      <point x="74" y="356" type="line"/>
      <point x="423" y="196" type="line"/>
    </contour>
  </outline>
</glyph>
<glyph name="at" format="1">
  <advance width="777"/>
  <unicode hex="0040"/>
  <outline>
    <contour>
      <point x="737" y="333" type="curve" smooth="yes"/>
      <point x="737" y="159"/>
      <point x="649" y="33"/>
      <point x="561" y="33" type="curve" smooth="yes"/>
      <point x="504" y="33"/>
      <point x="470" y="75"/>
      <point x="464" y="148" type="curve"/>
      <point x="460" y="148" type="line"/>
      <point x="418" y="70"/>
      <point x="377" y="33"/>
      <point x="328" y="33" type="curve" smooth="yes"/>
      <point x="268" y="33"/>
      <point x="229" y="91"/>
      <point x="229" y="195" type="curve" smooth="yes"/>
      <point x="229" y="364"/>
      <point x="307" y="512"/>
      <point x="397" y="512" type="curve" smooth="yes"/>
      <point x="453" y="512"/>
      <point x="480" y="458"/>
      <point x="494" y="388" type="curve"/>
      <point x="498" y="387" type="line"/>
      <point x="520" y="510" type="line"/>
      <point x="549" y="491" type="line"/>
      <point x="498" y="197" type="line" smooth="yes"/>
      <point x="485" y="124"/>
      <point x="507" y="56"/>
      <point x="564" y="56" type="curve" smooth="yes"/>
      <point x="636" y="56"/>
      <point x="708" y="174"/>
      <point x="708" y="331" type="curve" smooth="yes"/>
      <point x="708" y="561"/>
      <point x="582" y="708"/>
      <point x="402" y="708" type="curve" smooth="yes"/>
      <point x="214" y="708"/>
      <point x="70" y="509"/>
      <point x="70" y="266" type="curve" smooth="yes"/>
      <point x="70" y="10"/>
      <point x="197" y="-168"/>
      <point x="395" y="-168" type="curve" smooth="yes"/>
      <point x="491" y="-168"/>
      <point x="561" y="-138"/>
      <point x="629" y="-86" type="curve"/>
      <point x="643" y="-108" type="line"/>
      <point x="570" y="-161"/>
      <point x="495" y="-192"/>
      <point x="393" y="-192" type="curve" smooth="yes"/>
      <point x="181" y="-192"/>
      <point x="40" y="-10"/>
      <point x="40" y="265" type="curve" smooth="yes"/>
      <point x="40" y="529"/>
      <point x="205" y="732"/>
      <point x="404" y="732" type="curve" smooth="yes"/>
      <point x="592" y="732"/>
      <point x="737" y="574"/>
    </contour>
    <contour>
      <point x="485" y="312" type="curve" smooth="yes"/>
      <point x="487" y="393"/>
      <point x="455" y="485"/>
      <point x="398" y="485" type="curve" smooth="yes"/>
      <point x="322" y="485"/>
      <point x="262" y="347"/>
      <point x="262" y="197" type="curve" smooth="yes"/>
      <point x="262" y="113"/>
      <point x="288" y="58"/>
      <point x="335" y="58" type="curve" smooth="yes"/>
      <point x="406" y="58"/>
      <point x="481" y="196"/>
    </contour>
  </outline>
</glyph>
<glyph name="A" format="1">
  <advance width="516"/>
  <unicode hex="0041"/>
  <outline>
    <contour>
      <point x="491" y="0" type="line"/>
      <point x="453" y="0" type="line"/>
      <point x="396" y="201" type="line"/>
      <point x="117" y="201" type="line"/>
      <point x="61" y="0" type="line"/>
      <point x="25" y="0" type="line"/>
      <point x="230" y="724" type="line"/>
      <point x="286" y="724" type="line"/>
    </contour>
    <contour>
      <point x="388" y="232" type="line"/>
      <point x="260" y="686" type="line"/>
      <point x="254" y="686" type="line"/>
      <point x="126" y="232" type="line"/>
    </contour>
  </outline>
</glyph>
<glyph name="B" format="1">
  <advance width="475"/>
  <unicode hex="0042"/>
  <outline>
    <contour>
      <point x="435" y="200" type="curve" smooth="yes"/>
      <point x="435" y="70"/>
      <point x="351" y="0"/>
      <point x="232" y="0" type="curve" smooth="yes"/>
      <point x="72" y="0" type="line"/>
      <point x="72" y="720" type="line"/>
      <point x="236" y="720" type="line" smooth="yes"/>
      <point x="342" y="720"/>
      <point x="410" y="654"/>
      <point x="410" y="552" type="curve" smooth="yes"/>
      <point x="410" y="461"/>
      <point x="358" y="413"/>
      <point x="295" y="393" type="curve"/>
      <point x="295" y="389" type="line"/>
      <point x="377" y="371"/>
      <point x="435" y="315"/>
    </contour>
    <contour>
      <point x="372" y="552" type="curve" smooth="yes"/>
      <point x="372" y="642"/>
      <point x="319" y="690"/>
      <point x="233" y="690" type="curve" smooth="yes"/>
      <point x="110" y="690" type="line"/>
      <point x="110" y="404" type="line"/>
      <point x="228" y="404" type="line" smooth="yes"/>
      <point x="314" y="404"/>
      <point x="372" y="451"/>
    </contour>
    <contour>
      <point x="397" y="195" type="curve" smooth="yes"/>
      <point x="397" y="305"/>
      <point x="349" y="372"/>
      <point x="231" y="372" type="curve" smooth="yes"/>
      <point x="110" y="372" type="line"/>
      <point x="110" y="30" type="line"/>
      <point x="233" y="30" type="line" smooth="yes"/>
      <point x="333" y="30"/>
      <point x="397" y="85"/>
    </contour>
  </outline>
</glyph>
<glyph name="D" format="1">
  <advance width="473"/>
  <unicode hex="0044"/>
  <outline>
    <contour>
      <point x="427" y="324" type="line" smooth="yes"/>
      <point x="427" y="121"/>
      <point x="339" y="0"/>
      <point x="179" y="0" type="curve" smooth="yes"/>
      <point x="72" y="0" type="line"/>
      <point x="72" y="720" type="line"/>
      <point x="183" y="720" type="line" smooth="yes"/>
      <point x="343" y="720"/>
      <point x="427" y="598"/>
      <point x="427" y="398" type="curve" smooth="yes"/>
    </contour>
    <contour>
      <point x="389" y="321" type="curve" smooth="yes"/>
      <point x="389" y="397" type="line" smooth="yes"/>
      <point x="389" y="582"/>
      <point x="316" y="690"/>
      <point x="181" y="690" type="curve" smooth="yes"/>
      <point x="110" y="690" type="line"/>
      <point x="110" y="30" type="line"/>
      <point x="185" y="30" type="line" smooth="yes"/>
      <point x="314" y="30"/>
      <point x="389" y="138"/>
    </contour>
  </outline>
</glyph>
<glyph name="E" format="1">
  <advance width="420"/>
  <unicode hex="0045"/>
  <outline>
    <contour>
      <point x="391" y="0" type="line"/>
      <point x="72" y="0" type="line"/>
      <point x="72" y="720" type="line"/>
      <point x="381" y="720" type="line"/>
      <point x="381" y="690" type="line"/>
      <point x="110" y="690" type="line"/>
      <point x="110" y="393" type="line"/>
      <point x="339" y="393" type="line"/>
      <point x="339" y="363" type="line"/>
      <point x="110" y="363" type="line"/>
      <point x="110" y="30" type="line"/>
      <point x="391" y="30" type="line"/>
    </contour>
  </outline>
</glyph>
<glyph name="F" format="1">
  <advance width="393"/>
  <unicode hex="0046"/>
  <outline>
    <contour>
      <point x="379" y="690" type="line"/>
      <point x="110" y="690" type="line"/>
      <point x="110" y="378" type="line"/>
      <point x="330" y="378" type="line"/>
      <point x="330" y="348" type="line"/>
      <point x="110" y="348" type="line"/>
      <point x="110" y="0" type="line"/>
      <point x="72" y="0" type="line"/>
      <point x="72" y="720" type="line"/>
      <point x="379" y="720" type="line"/>
    </contour>
  </outline>
</glyph>
<glyph name="I" format="1">
  <advance width="296"/>
  <unicode hex="0049"/>
  <outline>
    <contour>
      <point x="249" y="0" type="line"/>
      <point x="47" y="0" type="line"/>
      <point x="47" y="25" type="line"/>
      <point x="129" y="25" type="line"/>
      <point x="129" y="695" type="line"/>
      <point x="47" y="695" type="line"/>
      <point x="47" y="720" type="line"/>
      <point x="249" y="720" type="line"/>
      <point x="249" y="695" type="line"/>
      <point x="167" y="695" type="line"/>
      <point x="167" y="25" type="line"/>
      <point x="249" y="25" type="line"/>
    </contour>
  </outline>
</glyph>
<glyph name="N" format="1">
  <advance width="502"/>
  <unicode hex="004E"/>
  <outline>
    <contour>
      <point x="430" y="0" type="line"/>
      <point x="378" y="0" type="line"/>
      <point x="111" y="667" type="line"/>
      <point x="106" y="667" type="line"/>
      <point x="106" y="0" type="line"/>
      <point x="72" y="0" type="line"/>
      <point x="72" y="720" type="line"/>
      <point x="126" y="720" type="line"/>
      <point x="391" y="61" type="line"/>
      <point x="396" y="61" type="line"/>
      <point x="396" y="720" type="line"/>
      <point x="430" y="720" type="line"/>
    </contour>
  </outline>
</glyph>
<glyph name="O" format="1">
  <advance width="476"/>
  <unicode hex="004F"/>
  <outline>
    <contour>
      <point x="431" y="323" type="line" smooth="yes"/>
      <point x="431" y="122"/>
      <point x="362" y="-12"/>
      <point x="238" y="-12" type="curve" smooth="yes"/>
      <point x="114" y="-12"/>
      <point x="45" y="120"/>
      <point x="45" y="321" type="curve" smooth="yes"/>
      <point x="45" y="397" type="line" smooth="yes"/>
      <point x="45" y="598"/>
      <point x="114" y="732"/>
      <point x="238" y="732" type="curve" smooth="yes"/>
      <point x="362" y="732"/>
      <point x="431" y="599"/>
      <point x="431" y="399" type="curve" smooth="yes"/>
    </contour>
    <contour>
      <point x="393" y="320" type="curve" smooth="yes"/>
      <point x="393" y="398" type="line" smooth="yes"/>
      <point x="393" y="567"/>
      <point x="343" y="702"/>
      <point x="238" y="702" type="curve" smooth="yes"/>
      <point x="133" y="702"/>
      <point x="83" y="569"/>
      <point x="83" y="400" type="curve" smooth="yes"/>
      <point x="83" y="322" type="line" smooth="yes"/>
      <point x="83" y="152"/>
      <point x="133" y="18"/>
      <point x="238" y="18" type="curve" smooth="yes"/>
      <point x="343" y="18"/>
      <point x="393" y="150"/>
    </contour>
  </outline>
</glyph>
<glyph name="P" format="1">
  <advance width="440"/>
  <unicode hex="0050"/>
  <outline>
    <contour>
      <point x="406" y="519" type="curve" smooth="yes"/>
      <point x="406" y="391"/>
      <point x="330" y="316"/>
      <point x="205" y="316" type="curve" smooth="yes"/>
      <point x="110" y="316" type="line"/>
      <point x="110" y="0" type="line"/>
      <point x="72" y="0" type="line"/>
      <point x="72" y="720" type="line"/>
      <point x="200" y="720" type="line" smooth="yes"/>
      <point x="331" y="720"/>
      <point x="406" y="648"/>
    </contour>
    <contour>
      <point x="369" y="517" type="curve" smooth="yes"/>
      <point x="369" y="628"/>
      <point x="314" y="690"/>
      <point x="205" y="690" type="curve" smooth="yes"/>
      <point x="110" y="690" type="line"/>
      <point x="110" y="346" type="line"/>
      <point x="209" y="346" type="line" smooth="yes"/>
      <point x="314" y="346"/>
      <point x="369" y="403"/>
    </contour>
  </outline>
</glyph>
<glyph name="Q" format="1">
  <advance width="476"/>
  <unicode hex="0051"/>
  <outline>
    <contour>
      <point x="464" y="-94" type="line"/>
      <point x="454" y="-98"/>
      <point x="442" y="-99"/>
      <point x="433" y="-99" type="curve" smooth="yes"/>
      <point x="394" y="-99"/>
      <point x="374" y="-86"/>
      <point x="349" y="-39" type="curve" smooth="yes"/>
      <point x="321" y="13" type="line"/>
      <point x="297" y="-4"/>
      <point x="269" y="-12"/>
      <point x="238" y="-12" type="curve" smooth="yes"/>
      <point x="114" y="-12"/>
      <point x="45" y="120"/>
      <point x="45" y="321" type="curve" smooth="yes"/>
      <point x="45" y="397" type="line" smooth="yes"/>
      <point x="45" y="598"/>
      <point x="114" y="732"/>
      <point x="238" y="732" type="curve" smooth="yes"/>
      <point x="362" y="732"/>
      <point x="431" y="599"/>
      <point x="431" y="399" type="curve" smooth="yes"/>
      <point x="431" y="323" type="line" smooth="yes"/>
      <point x="431" y="192"/>
      <point x="402" y="89"/>
      <point x="346" y="33" type="curve"/>
      <point x="381" y="-28" type="line" smooth="yes"/>
      <point x="396" y="-54"/>
      <point x="410" y="-66"/>
      <point x="436" y="-66" type="curve" smooth="yes"/>
      <point x="446" y="-66"/>
      <point x="454" y="-64"/>
      <point x="464" y="-61" type="curve"/>
    </contour>
    <contour>
      <point x="393" y="320" type="curve" smooth="yes"/>
      <point x="393" y="398" type="line" smooth="yes"/>
      <point x="393" y="567"/>
      <point x="343" y="702"/>
      <point x="238" y="702" type="curve" smooth="yes"/>
      <point x="133" y="702"/>
      <point x="83" y="569"/>
      <point x="83" y="400" type="curve" smooth="yes"/>
      <point x="83" y="322" type="line" smooth="yes"/>
      <point x="83" y="152"/>
      <point x="133" y="18"/>
      <point x="238" y="18" type="curve" smooth="yes"/>
      <point x="264" y="18"/>
      <point x="287" y="26"/>
      <point x="306" y="41" type="curve"/>
      <point x="227" y="188" type="line"/>
      <point x="251" y="203" type="line"/>
      <point x="329" y="64" type="line"/>
      <point x="372" y="117"/>
      <point x="393" y="210"/>
    </contour>
  </outline>
</glyph>
<glyph name="V" format="1">
  <advance width="460"/>
  <unicode hex="0056"/>
  <outline>
    <contour>
      <point x="445" y="720" type="line"/>
      <point x="258" y="-8" type="line"/>
      <point x="210" y="-8" type="line"/>
      <point x="25" y="720" type="line"/>
      <point x="63" y="720" type="line"/>
      <point x="233" y="34" type="line"/>
      <point x="238" y="34" type="line"/>
      <point x="409" y="720" type="line"/>
    </contour>
  </outline>
</glyph>
<glyph name="Y" format="1">
  <advance width="480"/>
  <unicode hex="0059"/>
  <outline>
    <contour>
      <point x="464" y="720" type="line"/>
      <point x="259" y="276" type="line"/>
      <point x="259" y="0" type="line"/>
      <point x="221" y="0" type="line"/>
      <point x="221" y="276" type="line"/>
      <point x="16" y="720" type="line"/>
      <point x="57" y="720" type="line"/>
      <point x="241" y="310" type="line"/>
      <point x="424" y="720" type="line"/>
    </contour>
  </outline>
</glyph>
<glyph name="bracketright" format="1">
  <advance width="260"/>
  <unicode hex="005D"/>
  <outline>
    <contour>
      <point x="193" y="-87" type="line"/>
      <point x="20" y="-80" type="line"/>
      <point x="20" y="-52" type="line"/>
      <point x="158" y="-59" type="line"/>
      <point x="158" y="699" type="line"/>
      <point x="20" y="692" type="line"/>
      <point x="20" y="720" type="line"/>
      <point x="193" y="727" type="line"/>
    </contour>
  </outline>
</glyph>
<glyph name="asciicircum" format="1">
  <advance width="390"/>
  <unicode hex="005E"/>
  <outline>
    <contour>
      <point x="346" y="475" type="line"/>
      <point x="321" y="475" type="line"/>
      <point x="195" y="685" type="line"/>
      <point x="69" y="475" type="line"/>
      <point x="44" y="475" type="line"/>
      <point x="175" y="725" type="line"/>
      <point x="215" y="725" type="line"/>
    </contour>
  </outline>
</glyph>
<glyph name="a" format="1">
  <advance width="369"/>
  <unicode hex="0061"/>
  <outline>
    <contour>
      <point x="347" y="-4" type="line"/>
      <point x="303" y="-4"/>
      <point x="272" y="31"/>
      <point x="268" y="80" type="curve"/>
      <point x="264" y="80" type="line"/>
      <point x="237" y="34"/>
      <point x="197" y="-8"/>
      <point x="140" y="-8" type="curve" smooth="yes"/>
      <point x="77" y="-8"/>
      <point x="29" y="40"/>
      <point x="29" y="121" type="curve" smooth="yes"/>
      <point x="29" y="216"/>
      <point x="107" y="293"/>
      <point x="267" y="305" type="curve"/>
      <point x="267" y="386" type="line" smooth="yes"/>
      <point x="267" y="457"/>
      <point x="244" y="488"/>
      <point x="196" y="488" type="curve" smooth="yes"/>
      <point x="153" y="488"/>
      <point x="119" y="470"/>
      <point x="76" y="443" type="curve"/>
      <point x="62" y="470" type="line"/>
      <point x="102" y="496"/>
      <point x="144" y="517"/>
      <point x="202" y="517" type="curve" smooth="yes"/>
      <point x="272" y="517"/>
      <point x="302" y="475"/>
      <point x="302" y="384" type="curve" smooth="yes"/>
      <point x="302" y="96" type="line" smooth="yes"/>
      <point x="302" y="55"/>
      <point x="317" y="29"/>
      <point x="347" y="27" type="curve"/>
    </contour>
    <contour>
      <point x="267" y="119" type="curve"/>
      <point x="267" y="279" type="line"/>
      <point x="121" y="267"/>
      <point x="64" y="197"/>
      <point x="64" y="123" type="curve" smooth="yes"/>
      <point x="64" y="61"/>
      <point x="98" y="21"/>
      <point x="149" y="21" type="curve" smooth="yes"/>
      <point x="192" y="21"/>
      <point x="234" y="51"/>
    </contour>
  </outline>
</glyph>
<glyph name="g" format="1">
  <advance width="394"/>
  <unicode hex="0067"/>
  <outline>
    <contour>
      <point x="334" y="-3" type="line" smooth="yes"/>
      <point x="334" y="-139"/>
      <point x="270" y="-190"/>
      <point x="186" y="-190" type="curve" smooth="yes"/>
      <point x="129" y="-190"/>
      <point x="99" y="-178"/>
      <point x="72" y="-166" type="curve"/>
      <point x="72" y="-122" type="line"/>
      <point x="89" y="-122" type="line"/>
      <point x="104" y="-149"/>
      <point x="133" y="-163"/>
      <point x="190" y="-163" type="curve" smooth="yes"/>
      <point x="252" y="-163"/>
      <point x="299" y="-124"/>
      <point x="299" y="-14" type="curve" smooth="yes"/>
      <point x="299" y="100" type="line"/>
      <point x="294" y="100" type="line"/>
      <point x="264" y="40"/>
      <point x="226" y="-10"/>
      <point x="171" y="-10" type="curve" smooth="yes"/>
      <point x="97" y="-10"/>
      <point x="37" y="81"/>
      <point x="37" y="243" type="curve" smooth="yes"/>
      <point x="37" y="268" type="line" smooth="yes"/>
      <point x="37" y="428"/>
      <point x="102" y="522"/>
      <point x="174" y="522" type="curve" smooth="yes"/>
      <point x="225" y="522"/>
      <point x="266" y="473"/>
      <point x="294" y="416" type="curve"/>
      <point x="299" y="416" type="line"/>
      <point x="299" y="521" type="line"/>
      <point x="334" y="501" type="line"/>
    </contour>
    <contour>
      <point x="304" y="256" type="curve" smooth="yes"/>
      <point x="304" y="375"/>
      <point x="246" y="491"/>
      <point x="176" y="491" type="curve" smooth="yes"/>
      <point x="117" y="491"/>
      <point x="72" y="409"/>
      <point x="72" y="257" type="curve" smooth="yes"/>
      <point x="72" y="96"/>
      <point x="119" y="21"/>
      <point x="179" y="21" type="curve" smooth="yes"/>
      <point x="245" y="21"/>
      <point x="304" y="136"/>
    </contour>
  </outline>
</glyph>
<glyph name="h" format="1">
  <advance width="376"/>
  <unicode hex="0068"/>
  <outline>
    <contour>
      <point x="319" y="0" type="line"/>
      <point x="284" y="0" type="line"/>
      <point x="284" y="412" type="line" smooth="yes"/>
      <point x="284" y="464"/>
      <point x="265" y="487"/>
      <point x="228" y="487" type="curve" smooth="yes"/>
      <point x="187" y="487"/>
      <point x="139" y="446"/>
      <point x="95" y="364" type="curve"/>
      <point x="95" y="0" type="line"/>
      <point x="60" y="0" type="line"/>
      <point x="60" y="742" type="line"/>
      <point x="95" y="762" type="line"/>
      <point x="95" y="409" type="line"/>
      <point x="99" y="409" type="line"/>
      <point x="140" y="472"/>
      <point x="181" y="517"/>
      <point x="237" y="517" type="curve" smooth="yes"/>
      <point x="293" y="517"/>
      <point x="319" y="475"/>
      <point x="319" y="417" type="curve" smooth="yes"/>
    </contour>
  </outline>
</glyph>
<glyph name="i" format="1">
  <advance width="169"/>
  <unicode hex="0069"/>
  <outline>
    <contour>
      <point x="107" y="653" type="line"/>
      <point x="62" y="653" type="line"/>
      <point x="62" y="720" type="line"/>
      <point x="107" y="720" type="line"/>
    </contour>
    <contour>
      <point x="102" y="0" type="line"/>
      <point x="67" y="0" type="line"/>
      <point x="67" y="512" type="line"/>
      <point x="102" y="512" type="line"/>
    </contour>
  </outline>
</glyph>
<glyph name="j" format="1">
  <advance width="169"/>
  <unicode hex="006A"/>
  <outline>
    <contour>
      <point x="107" y="653" type="line"/>
      <point x="62" y="653" type="line"/>
      <point x="62" y="720" type="line"/>
      <point x="107" y="720" type="line"/>
    </contour>
    <contour>
      <point x="102" y="-90" type="line" smooth="yes"/>
      <point x="102" y="-158"/>
      <point x="72" y="-190"/>
      <point x="19" y="-190" type="curve" smooth="yes"/>
      <point x="0" y="-190"/>
      <point x="-11" y="-188"/>
      <point x="-23" y="-183" type="curve"/>
      <point x="-23" y="-152" type="line"/>
      <point x="-12" y="-158"/>
      <point x="1" y="-161"/>
      <point x="20" y="-161" type="curve" smooth="yes"/>
      <point x="47" y="-161"/>
      <point x="67" y="-141"/>
      <point x="67" y="-95" type="curve" smooth="yes"/>
      <point x="67" y="512" type="line"/>
      <point x="102" y="512" type="line"/>
    </contour>
  </outline>
</glyph>
<glyph name="k" format="1">
  <advance width="344"/>
  <unicode hex="006B"/>
  <outline>
    <contour>
      <point x="339" y="0" type="line"/>
      <point x="296" y="0" type="line"/>
      <point x="112" y="257" type="line"/>
      <point x="112" y="260" type="line"/>
      <point x="293" y="512" type="line"/>
      <point x="333" y="512" type="line"/>
      <point x="151" y="261" type="line"/>
    </contour>
    <contour>
      <point x="95" y="0" type="line"/>
      <point x="60" y="0" type="line"/>
      <point x="60" y="742" type="line"/>
      <point x="95" y="762" type="line"/>
    </contour>
  </outline>
</glyph>
<glyph name="s" format="1">
  <advance width="310"/>
  <unicode hex="0073"/>
  <outline>
    <contour>
      <point x="277" y="122" type="curve" smooth="yes"/>
      <point x="277" y="40"/>
      <point x="220" y="-8"/>
      <point x="156" y="-8" type="curve" smooth="yes"/>
      <point x="95" y="-8"/>
      <point x="55" y="27"/>
      <point x="25" y="73" type="curve"/>
      <point x="49" y="94" type="line"/>
      <point x="79" y="47"/>
      <point x="114" y="19"/>
      <point x="157" y="19" type="curve" smooth="yes"/>
      <point x="208" y="19"/>
      <point x="243" y="61"/>
      <point x="243" y="119" type="curve" smooth="yes"/>
      <point x="243" y="179"/>
      <point x="222" y="208"/>
      <point x="149" y="251" type="curve" smooth="yes"/>
      <point x="75" y="294"/>
      <point x="39" y="332"/>
      <point x="39" y="400" type="curve" smooth="yes"/>
      <point x="39" y="470"/>
      <point x="87" y="520"/>
      <point x="154" y="520" type="curve" smooth="yes"/>
      <point x="202" y="520"/>
      <point x="237" y="495"/>
      <point x="267" y="455" type="curve"/>
      <point x="244" y="432" type="line"/>
      <point x="216" y="473"/>
      <point x="188" y="493"/>
      <point x="153" y="493" type="curve" smooth="yes"/>
      <point x="102" y="493"/>
      <point x="74" y="454"/>
      <point x="74" y="403" type="curve" smooth="yes"/>
      <point x="74" y="349"/>
      <point x="101" y="319"/>
      <point x="164" y="283" type="curve" smooth="yes"/>
      <point x="245" y="236"/>
      <point x="277" y="196"/>
    </contour>
  </outline>
</glyph>
<glyph name="u" format="1">
  <advance width="376"/>
  <unicode hex="0075"/>
  <outline>
    <contour>
      <point x="316" y="11" type="line"/>
      <point x="281" y="-9" type="line"/>
      <point x="281" y="103" type="line"/>
      <point x="277" y="103" type="line"/>
      <point x="236" y="40"/>
      <point x="195" y="-5"/>
      <point x="139" y="-5" type="curve" smooth="yes"/>
      <point x="83" y="-5"/>
      <point x="57" y="37"/>
      <point x="57" y="95" type="curve" smooth="yes"/>
      <point x="57" y="512" type="line"/>
      <point x="92" y="512" type="line"/>
      <point x="92" y="100" type="line" smooth="yes"/>
      <point x="92" y="48"/>
      <point x="111" y="25"/>
      <point x="148" y="25" type="curve" smooth="yes"/>
      <point x="189" y="25"/>
      <point x="237" y="66"/>
      <point x="281" y="148" type="curve"/>
      <point x="281" y="512" type="line"/>
      <point x="316" y="512" type="line"/>
    </contour>
  </outline>
</glyph>
<glyph name="x" format="1">
  <advance width="358"/>
  <unicode hex="0078"/>
  <outline>
    <contour>
      <point x="331" y="0" type="line"/>
      <point x="292" y="0" type="line"/>
      <point x="178" y="227" type="line"/>
      <point x="62" y="0" type="line"/>
      <point x="27" y="0" type="line"/>
      <point x="163" y="259" type="line"/>
      <point x="32" y="512" type="line"/>
      <point x="71" y="512" type="line"/>
      <point x="180" y="294" type="line"/>
      <point x="291" y="512" type="line"/>
      <point x="326" y="512" type="line"/>
      <point x="195" y="262" type="line"/>
    </contour>
  </outline>
</glyph>
<glyph name="z" format="1">
  <advance width="318"/>
  <unicode hex="007A"/>
  <outline>
    <contour>
      <point x="291" y="0" type="line"/>
      <point x="25" y="0" type="line"/>
      <point x="25" y="24" type="line"/>
      <point x="254" y="478" type="line"/>
      <point x="37" y="478" type="line"/>
      <point x="37" y="507" type="line"/>
      <point x="291" y="507" type="line"/>
      <point x="291" y="483" type="line"/>
      <point x="62" y="29" type="line"/>
      <point x="291" y="29" type="line"/>
    </contour>
  </outline>
</glyph>
<glyph name="braceleft" format="1">
  <advance width="285"/>
  <unicode hex="007B"/>
  <outline>
    <contour>
      <point x="257" y="-80" type="line"/>
      <point x="219" y="-80" type="line" smooth="yes"/>
      <point x="144" y="-80"/>
      <point x="108" y="-39"/>
      <point x="108" y="43" type="curve" smooth="yes"/>
      <point x="108" y="90"/>
      <point x="123" y="162"/>
      <point x="123" y="203" type="curve" smooth="yes"/>
      <point x="123" y="274"/>
      <point x="79" y="305"/>
      <point x="20" y="305" type="curve"/>
      <point x="20" y="335" type="line"/>
      <point x="79" y="335"/>
      <point x="123" y="366"/>
      <point x="123" y="437" type="curve" smooth="yes"/>
      <point x="123" y="478"/>
      <point x="108" y="550"/>
      <point x="108" y="597" type="curve" smooth="yes"/>
      <point x="108" y="679"/>
      <point x="144" y="720"/>
      <point x="219" y="720" type="curve" smooth="yes"/>
      <point x="257" y="720" type="line"/>
      <point x="257" y="692" type="line"/>
      <point x="219" y="692" type="line" smooth="yes"/>
      <point x="167" y="692"/>
      <point x="144" y="663"/>
      <point x="144" y="604" type="curve" smooth="yes"/>
      <point x="144" y="560"/>
      <point x="159" y="497"/>
      <point x="159" y="447" type="curve" smooth="yes"/>
      <point x="159" y="370"/>
      <point x="117" y="343"/>
      <point x="73" y="324" type="curve"/>
      <point x="73" y="316" type="line"/>
      <point x="117" y="297"/>
      <point x="159" y="270"/>
      <point x="159" y="193" type="curve" smooth="yes"/>
      <point x="159" y="143"/>
      <point x="144" y="80"/>
      <point x="144" y="36" type="curve" smooth="yes"/>
      <point x="144" y="-23"/>
      <point x="167" y="-52"/>
      <point x="219" y="-52" type="curve" smooth="yes"/>
      <point x="257" y="-52" type="line"/>
    </contour>
  </outline>
</glyph>
<glyph name="bar" format="1">
  <advance width="190"/>
  <unicode hex="007C"/>
  <outline>
    <contour>
      <point x="111" y="-188" type="line"/>
      <point x="79" y="-188" type="line"/>
      <point x="79" y="762" type="line"/>
      <point x="111" y="762" type="line"/>
    </contour>
  </outline>
</glyph>
<glyph name="asciitilde" format="1">
  <advance width="294"/>
  <unicode hex="007E"/>
  <outline>
    <contour>
      <point x="263" y="315" type="line"/>
      <point x="263" y="264"/>
      <point x="243" y="240"/>
      <point x="204" y="240" type="curve" smooth="yes"/>
      <point x="162" y="240"/>
      <point x="119" y="283"/>
      <point x="87" y="283" type="curve" smooth="yes"/>
      <point x="64" y="283"/>
      <point x="54" y="269"/>
      <point x="54" y="242" type="curve"/>
      <point x="31" y="242" type="line"/>
      <point x="31" y="293"/>
      <point x="51" y="317"/>
      <point x="90" y="317" type="curve" smooth="yes"/>
      <point x="132" y="317"/>
      <point x="175" y="274"/>
      <point x="207" y="274" type="curve" smooth="yes"/>
      <point x="230" y="274"/>
      <point x="240" y="288"/>
      <point x="240" y="315" type="curve"/>
    </contour>
  </outline>
</glyph>
<glyph name="exclamdown" format="1">
  <advance width="190"/>
  <unicode hex="00A1"/>
  <outline>
    <contour>
      <point x="127" y="695" type="curve" smooth="yes"/>
      <point x="127" y="676"/>
      <point x="114" y="663"/>
      <point x="95" y="663" type="curve" smooth="yes"/>
      <point x="76" y="663"/>
      <point x="63" y="676"/>
      <point x="63" y="695" type="curve" smooth="yes"/>
      <point x="63" y="714"/>
      <point x="76" y="727"/>
      <point x="95" y="727" type="curve" smooth="yes"/>
      <point x="114" y="727"/>
      <point x="127" y="714"/>
    </contour>
    <contour>
      <point x="117" y="0" type="line"/>
      <point x="73" y="0" type="line"/>
      <point x="86" y="542" type="line"/>
      <point x="104" y="542" type="line"/>
    </contour>
  </outline>
</glyph>
<glyph name="yen" format="1">
  <advance width="470"/>
  <unicode hex="00A5"/>
  <outline>
    <contour>
      <point x="449" y="720" type="line"/>
      <point x="295" y="372" type="line"/>
      <point x="411" y="372" type="line"/>
      <point x="411" y="343" type="line"/>
      <point x="282" y="343" type="line"/>
      <point x="253" y="276" type="line"/>
      <point x="253" y="191" type="line"/>
      <point x="411" y="191" type="line"/>
      <point x="411" y="162" type="line"/>
      <point x="253" y="162" type="line"/>
      <point x="253" y="0" type="line"/>
      <point x="217" y="0" type="line"/>
      <point x="217" y="162" type="line"/>
      <point x="59" y="162" type="line"/>
      <point x="59" y="191" type="line"/>
      <point x="217" y="191" type="line"/>
      <point x="217" y="276" type="line"/>
      <point x="187" y="343" type="line"/>
      <point x="59" y="343" type="line"/>
      <point x="59" y="372" type="line"/>
      <point x="175" y="372" type="line"/>
      <point x="21" y="720" type="line"/>
      <point x="62" y="720" type="line"/>
      <point x="236" y="310" type="line"/>
      <point x="409" y="720" type="line"/>
    </contour>
  </outline>
</glyph>
<glyph name="section" format="1">
  <advance width="446"/>
  <unicode hex="00A7"/>
  <outline>
    <contour>
      <point x="412" y="336" type="curve" smooth="yes"/>
      <point x="412" y="268"/>
      <point x="358" y="218"/>
      <point x="275" y="218" type="curve"/>
      <point x="275" y="212" type="line"/>
      <point x="325" y="186"/>
      <point x="360" y="150"/>
      <point x="360" y="95" type="curve" smooth="yes"/>
      <point x="360" y="32"/>
      <point x="306" y="-12"/>
      <point x="228" y="-12" type="curve" smooth="yes"/>
      <point x="173" y="-12"/>
      <point x="133" y="2"/>
      <point x="84" y="35" type="curve"/>
      <point x="101" y="62" type="line"/>
      <point x="143" y="31"/>
      <point x="180" y="17"/>
      <point x="231" y="17" type="curve" smooth="yes"/>
      <point x="291" y="17"/>
      <point x="325" y="48"/>
      <point x="325" y="93" type="curve" smooth="yes"/>
      <point x="325" y="142"/>
      <point x="299" y="177"/>
      <point x="188" y="224" type="curve" smooth="yes"/>
      <point x="81" y="269"/>
      <point x="34" y="316"/>
      <point x="34" y="384" type="curve" smooth="yes"/>
      <point x="34" y="452"/>
      <point x="88" y="502"/>
      <point x="171" y="502" type="curve"/>
      <point x="171" y="508" type="line"/>
      <point x="121" y="534"/>
      <point x="86" y="570"/>
      <point x="86" y="625" type="curve" smooth="yes"/>
      <point x="86" y="688"/>
      <point x="140" y="732"/>
      <point x="218" y="732" type="curve" smooth="yes"/>
      <point x="273" y="732"/>
      <point x="313" y="718"/>
      <point x="362" y="685" type="curve"/>
      <point x="345" y="658" type="line"/>
      <point x="303" y="689"/>
      <point x="266" y="703"/>
      <point x="215" y="703" type="curve" smooth="yes"/>
      <point x="155" y="703"/>
      <point x="121" y="672"/>
      <point x="121" y="627" type="curve" smooth="yes"/>
      <point x="121" y="578"/>
      <point x="147" y="543"/>
      <point x="258" y="496" type="curve" smooth="yes"/>
      <point x="365" y="451"/>
      <point x="412" y="404"/>
    </contour>
    <contour>
      <point x="376" y="334" type="curve" smooth="yes"/>
      <point x="376" y="380"/>
      <point x="352" y="420"/>
      <point x="266" y="458" type="curve" smooth="yes"/>
      <point x="231" y="473"/>
      <point x="203" y="477"/>
      <point x="170" y="477" type="curve" smooth="yes"/>
      <point x="114" y="477"/>
      <point x="70" y="445"/>
      <point x="70" y="386" type="curve" smooth="yes"/>
      <point x="70" y="340"/>
      <point x="94" y="300"/>
      <point x="180" y="262" type="curve" smooth="yes"/>
      <point x="215" y="247"/>
      <point x="243" y="243"/>
      <point x="276" y="243" type="curve" smooth="yes"/>
      <point x="332" y="243"/>
      <point x="376" y="275"/>
    </contour>
  </outline>
</glyph>
<glyph name="dieresis" format="1">
  <advance width="390"/>
  <unicode hex="00A8"/>
  <outline>
    <contour>
      <point x="285" y="577" type="line"/>
      <point x="236" y="577" type="line"/>
      <point x="236" y="640" type="line"/>
      <point x="285" y="640" type="line"/>
    </contour>
    <contour>
      <point x="154" y="577" type="line"/>
      <point x="105" y="577" type="line"/>
      <point x="105" y="640" type="line"/>
      <point x="154" y="640" type="line"/>
    </contour>
  </outline>
</glyph>
<glyph name="ordfeminine" format="1">
  <advance width="286"/>
  <unicode hex="00AA"/>
  <outline>
    <contour>
      <point x="250" y="462" type="line"/>
      <point x="219" y="461"/>
      <point x="201" y="474"/>
      <point x="196" y="504" type="curve"/>
      <point x="196" y="505" type="line"/>
      <point x="171" y="474"/>
      <point x="145" y="460"/>
      <point x="115" y="460" type="curve" smooth="yes"/>
      <point x="76" y="460"/>
      <point x="42" y="484"/>
      <point x="42" y="531" type="curve" smooth="yes"/>
      <point x="42" y="582"/>
      <point x="93" y="620"/>
      <point x="194" y="620" type="curve"/>
      <point x="194" y="647" type="line" smooth="yes"/>
      <point x="194" y="683"/>
      <point x="182" y="699"/>
      <point x="152" y="699" type="curve" smooth="yes"/>
      <point x="125" y="699"/>
      <point x="99" y="691"/>
      <point x="73" y="675" type="curve"/>
      <point x="63" y="697" type="line"/>
      <point x="90" y="712"/>
      <point x="118" y="725"/>
      <point x="155" y="725" type="curve" smooth="yes"/>
      <point x="202" y="725"/>
      <point x="223" y="701"/>
      <point x="223" y="648" type="curve" smooth="yes"/>
      <point x="223" y="518" type="line" smooth="yes"/>
      <point x="223" y="499"/>
      <point x="231" y="485"/>
      <point x="250" y="484" type="curve"/>
    </contour>
    <contour>
      <point x="240" y="378" type="line"/>
      <point x="44" y="378" type="line"/>
      <point x="44" y="403" type="line"/>
      <point x="240" y="403" type="line"/>
    </contour>
    <contour>
      <point x="194" y="533" type="curve"/>
      <point x="194" y="598" type="line"/>
      <point x="107" y="600"/>
      <point x="72" y="567"/>
      <point x="72" y="531" type="curve" smooth="yes"/>
      <point x="72" y="502"/>
      <point x="90" y="485"/>
      <point x="117" y="485" type="curve" smooth="yes"/>
      <point x="146" y="485"/>
      <point x="173" y="502"/>
    </contour>
  </outline>
</glyph>
<glyph name="guillemotright" format="1">
  <advance width="340"/>
  <unicode hex="00BB"/>
  <outline>
    <contour>
      <point x="320" y="256" type="line"/>
      <point x="198" y="80" type="line"/>
      <point x="171" y="80" type="line"/>
      <point x="273" y="256" type="line"/>
      <point x="171" y="432" type="line"/>
      <point x="198" y="432" type="line"/>
    </contour>
    <contour>
      <point x="180" y="256" type="line"/>
      <point x="58" y="80" type="line"/>
      <point x="31" y="80" type="line"/>
      <point x="133" y="256" type="line"/>
      <point x="31" y="432" type="line"/>
      <point x="58" y="432" type="line"/>
    </contour>
  </outline>
</glyph>
<glyph name="AE" format="1">
  <advance width="710"/>
  <unicode hex="00C6"/>
  <outline>
    <contour>
      <point x="681" y="0" type="line"/>
      <point x="362" y="0" type="line"/>
      <point x="362" y="204" type="line"/>
      <point x="137" y="204" type="line"/>
      <point x="51" y="0" type="line"/>
      <point x="13" y="0" type="line"/>
      <point x="318" y="720" type="line"/>
      <point x="671" y="720" type="line"/>
      <point x="671" y="690" type="line"/>
      <point x="400" y="690" type="line"/>
      <point x="400" y="393" type="line"/>
      <point x="629" y="393" type="line"/>
      <point x="629" y="363" type="line"/>
      <point x="400" y="363" type="line"/>
      <point x="400" y="30" type="line"/>
      <point x="681" y="30" type="line"/>
    </contour>
    <contour>
      <point x="362" y="234" type="line"/>
      <point x="362" y="690" type="line"/>
      <point x="341" y="690" type="line"/>
      <point x="149" y="234" type="line"/>
    </contour>
  </outline>
</glyph>
<glyph name="Ccedilla" format="1">
  <advance width="445"/>
  <unicode hex="00C7"/>
  <outline>
    <contour>
      <point x="413" y="200" type="line"/>
      <point x="389" y="78"/>
      <point x="342" y="-7"/>
      <point x="243" y="-12" type="curve"/>
      <point x="225" y="-44" type="line"/>
      <point x="237" y="-39"/>
      <point x="247" y="-36"/>
      <point x="261" y="-36" type="curve" smooth="yes"/>
      <point x="294" y="-36"/>
      <point x="314" y="-52"/>
      <point x="314" y="-82" type="curve" smooth="yes"/>
      <point x="314" y="-129"/>
      <point x="256" y="-152"/>
      <point x="161" y="-150" type="curve"/>
      <point x="161" y="-133" type="line"/>
      <point x="247" y="-131"/>
      <point x="279" y="-113"/>
      <point x="279" y="-86" type="curve" smooth="yes"/>
      <point x="279" y="-71"/>
      <point x="268" y="-61"/>
      <point x="248" y="-61" type="curve" smooth="yes"/>
      <point x="231" y="-61"/>
      <point x="218" y="-64"/>
      <point x="205" y="-71" type="curve"/>
      <point x="190" y="-61" type="line"/>
      <point x="218" y="-11" type="line"/>
      <point x="108" y="0"/>
      <point x="45" y="130"/>
      <point x="45" y="321" type="curve" smooth="yes"/>
      <point x="45" y="397" type="line" smooth="yes"/>
      <point x="45" y="598"/>
      <point x="115" y="732"/>
      <point x="233" y="732" type="curve" smooth="yes"/>
      <point x="329" y="732"/>
      <point x="383" y="658"/>
      <point x="408" y="537" type="curve"/>
      <point x="374" y="524" type="line"/>
      <point x="351" y="634"/>
      <point x="311" y="702"/>
      <point x="233" y="702" type="curve" smooth="yes"/>
      <point x="134" y="702"/>
      <point x="83" y="572"/>
      <point x="83" y="399" type="curve" smooth="yes"/>
      <point x="83" y="323" type="line" smooth="yes"/>
      <point x="83" y="150"/>
      <point x="135" y="18"/>
      <point x="236" y="18" type="curve" smooth="yes"/>
      <point x="315" y="18"/>
      <point x="354" y="87"/>
      <point x="380" y="210" type="curve"/>
    </contour>
  </outline>
</glyph>
<glyph name="multiply" format="1">
  <advance width="470"/>
  <unicode hex="00D7"/>
  <outline>
    <contour>
      <point x="409" y="202" type="line"/>
      <point x="388" y="180" type="line"/>
      <point x="234" y="335" type="line"/>
      <point x="81" y="180" type="line"/>
      <point x="60" y="202" type="line"/>
      <point x="215" y="355" type="line"/>
      <point x="60" y="508" type="line"/>
      <point x="81" y="529" type="line"/>
      <point x="234" y="374" type="line"/>
      <point x="388" y="529" type="line"/>
      <point x="409" y="508" type="line"/>
      <point x="254" y="355" type="line"/>
    </contour>
  </outline>
</glyph>
<glyph name="Oslash" format="1">
  <advance width="476"/>
  <unicode hex="00D8"/>
  <outline>
    <contour>
      <point x="433" y="817" type="line"/>
      <point x="370" y="657" type="line"/>
      <point x="410" y="599"/>
      <point x="431" y="509"/>
      <point x="431" y="399" type="curve" smooth="yes"/>
      <point x="431" y="323" type="line" smooth="yes"/>
      <point x="431" y="122"/>
      <point x="362" y="-12"/>
      <point x="238" y="-12" type="curve" smooth="yes"/>
      <point x="194" y="-12"/>
      <point x="157" y="4"/>
      <point x="128" y="34" type="curve"/>
      <point x="77" y="-95" type="line"/>
      <point x="45" y="-95" type="line"/>
      <point x="106" y="61" type="line"/>
      <point x="66" y="120"/>
      <point x="45" y="210"/>
      <point x="45" y="321" type="curve" smooth="yes"/>
      <point x="45" y="397" type="line" smooth="yes"/>
      <point x="45" y="598"/>
      <point x="114" y="732"/>
      <point x="238" y="732" type="curve" smooth="yes"/>
      <point x="282" y="732"/>
      <point x="320" y="715"/>
      <point x="349" y="684" type="curve"/>
      <point x="401" y="817" type="line"/>
    </contour>
    <contour>
      <point x="335" y="648" type="line"/>
      <point x="311" y="682"/>
      <point x="278" y="702"/>
      <point x="238" y="702" type="curve" smooth="yes"/>
      <point x="133" y="702"/>
      <point x="83" y="569"/>
      <point x="83" y="400" type="curve" smooth="yes"/>
      <point x="83" y="319" type="line" smooth="yes"/>
      <point x="83" y="233"/>
      <point x="96" y="157"/>
      <point x="122" y="102" type="curve"/>
    </contour>
    <contour>
      <point x="393" y="320" type="curve" smooth="yes"/>
      <point x="393" y="401" type="line" smooth="yes"/>
      <point x="393" y="486"/>
      <point x="380" y="562"/>
      <point x="354" y="616" type="curve"/>
      <point x="142" y="70" type="line"/>
      <point x="166" y="37"/>
      <point x="198" y="18"/>
      <point x="238" y="18" type="curve" smooth="yes"/>
      <point x="343" y="18"/>
      <point x="393" y="150"/>
    </contour>
  </outline>
</glyph>
<glyph name="Thorn" format="1">
  <advance width="440"/>
  <unicode hex="00DE"/>
  <outline>
    <contour>
      <point x="406" y="371" type="curve" smooth="yes"/>
      <point x="406" y="242"/>
      <point x="332" y="168"/>
      <point x="196" y="168" type="curve" smooth="yes"/>
      <point x="110" y="168" type="line"/>
      <point x="110" y="0" type="line"/>
      <point x="72" y="0" type="line"/>
      <point x="72" y="720" type="line"/>
      <point x="110" y="720" type="line"/>
      <point x="110" y="572" type="line"/>
      <point x="200" y="572" type="line" smooth="yes"/>
      <point x="331" y="572"/>
      <point x="406" y="500"/>
    </contour>
    <contour>
      <point x="369" y="369" type="curve" smooth="yes"/>
      <point x="369" y="480"/>
      <point x="314" y="542"/>
      <point x="205" y="542" type="curve" smooth="yes"/>
      <point x="110" y="542" type="line"/>
      <point x="110" y="198" type="line"/>
      <point x="209" y="198" type="line" smooth="yes"/>
      <point x="313" y="198"/>
      <point x="369" y="255"/>
    </contour>
  </outline>
</glyph>
<glyph name="ae" format="1">
  <advance width="577"/>
  <unicode hex="00E6"/>
  <outline>
    <contour>
      <point x="543" y="252" type="line"/>
      <point x="299" y="252" type="line"/>
      <point x="299" y="229" type="line" smooth="yes"/>
      <point x="299" y="98"/>
      <point x="345" y="20"/>
      <point x="418" y="20" type="curve" smooth="yes"/>
      <point x="459" y="20"/>
      <point x="491" y="41"/>
      <point x="519" y="77" type="curve"/>
      <point x="539" y="57" type="line"/>
      <point x="509" y="18"/>
      <point x="469" y="-10"/>
      <point x="417" y="-10" type="curve" smooth="yes"/>
      <point x="359" y="-10"/>
      <point x="314" y="25"/>
      <point x="289" y="91" type="curve"/>
      <point x="288" y="93" type="line"/>
      <point x="247" y="23"/>
      <point x="200" y="-8"/>
      <point x="145" y="-8" type="curve" smooth="yes"/>
      <point x="77" y="-8"/>
      <point x="29" y="40"/>
      <point x="29" y="121" type="curve" smooth="yes"/>
      <point x="29" y="216"/>
      <point x="108" y="293"/>
      <point x="267" y="305" type="curve"/>
      <point x="267" y="386" type="line" smooth="yes"/>
      <point x="267" y="457"/>
      <point x="244" y="488"/>
      <point x="196" y="488" type="curve" smooth="yes"/>
      <point x="153" y="488"/>
      <point x="119" y="470"/>
      <point x="76" y="443" type="curve"/>
      <point x="62" y="470" type="line"/>
      <point x="102" y="496"/>
      <point x="144" y="517"/>
      <point x="202" y="517" type="curve" smooth="yes"/>
      <point x="262" y="517"/>
      <point x="286" y="486"/>
      <point x="292" y="420" type="curve"/>
      <point x="296" y="420" type="line"/>
      <point x="317" y="484"/>
      <point x="353" y="522"/>
      <point x="407" y="522" type="curve" smooth="yes"/>
      <point x="491" y="522"/>
      <point x="543" y="415"/>
      <point x="543" y="254" type="curve" smooth="yes"/>
    </contour>
    <contour>
      <point x="508" y="280" type="line"/>
      <point x="505" y="398"/>
      <point x="467" y="495"/>
      <point x="407" y="495" type="curve" smooth="yes"/>
      <point x="338" y="495"/>
      <point x="299" y="403"/>
      <point x="299" y="284" type="curve" smooth="yes"/>
      <point x="299" y="280" type="line"/>
    </contour>
    <contour>
      <point x="277" y="129" type="curve"/>
      <point x="270" y="158"/>
      <point x="267" y="191"/>
      <point x="267" y="228" type="curve" smooth="yes"/>
      <point x="267" y="279" type="line"/>
      <point x="121" y="267"/>
      <point x="64" y="197"/>
      <point x="64" y="123" type="curve" smooth="yes"/>
      <point x="64" y="61"/>
      <point x="98" y="21"/>
      <point x="149" y="21" type="curve" smooth="yes"/>
      <point x="190" y="21"/>
      <point x="236" y="49"/>
    </contour>
  </outline>
</glyph>
<glyph name="eth" format="1">
  <advance width="378"/>
  <unicode hex="00F0"/>
  <outline>
    <contour>
      <point x="339" y="238" type="line" smooth="yes"/>
      <point x="339" y="96"/>
      <point x="280" y="-10"/>
      <point x="187" y="-10" type="curve" smooth="yes"/>
      <point x="94" y="-10"/>
      <point x="37" y="96"/>
      <point x="37" y="238" type="curve" smooth="yes"/>
      <point x="37" y="274" type="line" smooth="yes"/>
      <point x="37" y="416"/>
      <point x="96" y="522"/>
      <point x="188" y="522" type="curve" smooth="yes"/>
      <point x="243" y="522"/>
      <point x="279" y="474"/>
      <point x="301" y="416" type="curve"/>
      <point x="305" y="416" type="line"/>
      <point x="295" y="509"/>
      <point x="259" y="592"/>
      <point x="210" y="661" type="curve"/>
      <point x="123" y="590" type="line"/>
      <point x="123" y="622" type="line"/>
      <point x="196" y="681" type="line"/>
      <point x="179" y="703"/>
      <point x="161" y="724"/>
      <point x="142" y="743" type="curve"/>
      <point x="167" y="762" type="line"/>
      <point x="183" y="743"/>
      <point x="201" y="723"/>
      <point x="218" y="699" type="curve"/>
      <point x="296" y="762" type="line"/>
      <point x="296" y="730" type="line"/>
      <point x="232" y="679" type="line"/>
      <point x="288" y="595"/>
      <point x="339" y="475"/>
      <point x="339" y="278" type="curve" smooth="yes"/>
    </contour>
    <contour>
      <point x="304" y="231" type="curve" smooth="yes"/>
      <point x="304" y="281" type="line" smooth="yes"/>
      <point x="304" y="402"/>
      <point x="257" y="495"/>
      <point x="187" y="495" type="curve" smooth="yes"/>
      <point x="117" y="495"/>
      <point x="72" y="402"/>
      <point x="72" y="281" type="curve" smooth="yes"/>
      <point x="72" y="231" type="line" smooth="yes"/>
      <point x="72" y="110"/>
      <point x="119" y="17"/>
      <point x="189" y="17" type="curve" smooth="yes"/>
      <point x="259" y="17"/>
      <point x="304" y="110"/>
    </contour>
  </outline>
</glyph>
<glyph name="oslash" format="1">
  <advance width="376"/>
  <unicode hex="00F8"/>
  <outline>
    <contour>
      <point x="341" y="607" type="line"/>
      <point x="287" y="470" type="line"/>
      <point x="320" y="425"/>
      <point x="339" y="356"/>
      <point x="339" y="274" type="curve" smooth="yes"/>
      <point x="339" y="238" type="line" smooth="yes"/>
      <point x="339" y="96"/>
      <point x="280" y="-10"/>
      <point x="187" y="-10" type="curve" smooth="yes"/>
      <point x="157" y="-10"/>
      <point x="131" y="1"/>
      <point x="109" y="20" type="curve"/>
      <point x="64" y="-95" type="line"/>
      <point x="36" y="-95" type="line"/>
      <point x="90" y="41" type="line"/>
      <point x="56" y="86"/>
      <point x="37" y="156"/>
      <point x="37" y="238" type="curve" smooth="yes"/>
      <point x="37" y="274" type="line" smooth="yes"/>
      <point x="37" y="416"/>
      <point x="96" y="522"/>
      <point x="189" y="522" type="curve" smooth="yes"/>
      <point x="219" y="522"/>
      <point x="246" y="511"/>
      <point x="267" y="491" type="curve"/>
      <point x="313" y="607" type="line"/>
    </contour>
    <contour>
      <point x="255" y="459" type="line"/>
      <point x="236" y="482"/>
      <point x="213" y="495"/>
      <point x="187" y="495" type="curve" smooth="yes"/>
      <point x="117" y="495"/>
      <point x="72" y="397"/>
      <point x="72" y="276" type="curve" smooth="yes"/>
      <point x="72" y="231" type="line" smooth="yes"/>
      <point x="72" y="170"/>
      <point x="84" y="117"/>
      <point x="104" y="78" type="curve"/>
    </contour>
    <contour>
      <point x="304" y="236" type="curve" smooth="yes"/>
      <point x="304" y="281" type="line" smooth="yes"/>
      <point x="304" y="341"/>
      <point x="292" y="394"/>
      <point x="272" y="433" type="curve"/>
      <point x="122" y="52" type="line"/>
      <point x="140" y="30"/>
      <point x="163" y="17"/>
      <point x="189" y="17" type="curve" smooth="yes"/>
      <point x="259" y="17"/>
      <point x="304" y="115"/>
    </contour>
  </outline>
</glyph>
<glyph name="Lslash" format="1">
  <advance width="411"/>
  <unicode hex="0141"/>
  <outline>
    <contour>
      <point x="403" y="0" type="line"/>
      <point x="97" y="0" type="line"/>
      <point x="97" y="342" type="line"/>
      <point x="23" y="297" type="line"/>
      <point x="23" y="332" type="line"/>
      <point x="97" y="377" type="line"/>
      <point x="97" y="720" type="line"/>
      <point x="135" y="720" type="line"/>
      <point x="135" y="400" type="line"/>
      <point x="253" y="471" type="line"/>
      <point x="253" y="436" type="line"/>
      <point x="135" y="365" type="line"/>
      <point x="135" y="30" type="line"/>
      <point x="403" y="30" type="line"/>
    </contour>
  </outline>
</glyph>
<glyph name="lslash" format="1">
  <advance width="219"/>
  <unicode hex="0142"/>
  <outline>
    <contour>
      <point x="196" y="402" type="line"/>
      <point x="127" y="360" type="line"/>
      <point x="127" y="0" type="line"/>
      <point x="92" y="0" type="line"/>
      <point x="92" y="339" type="line"/>
      <point x="23" y="298" type="line"/>
      <point x="23" y="331" type="line"/>
      <point x="92" y="372" type="line"/>
      <point x="92" y="742" type="line"/>
      <point x="127" y="762" type="line"/>
      <point x="127" y="393" type="line"/>
      <point x="196" y="435" type="line"/>
    </contour>
  </outline>
</glyph>
<glyph name="OE" format="1">
  <advance width="710"/>
  <unicode hex="0152"/>
  <outline>
    <contour>
      <point x="681" y="0" type="line"/>
      <point x="289" y="0" type="line" smooth="yes"/>
      <point x="129" y="0"/>
      <point x="45" y="122"/>
      <point x="45" y="322" type="curve" smooth="yes"/>
      <point x="45" y="396" type="line" smooth="yes"/>
      <point x="45" y="599"/>
      <point x="133" y="720"/>
      <point x="293" y="720" type="curve" smooth="yes"/>
      <point x="671" y="720" type="line"/>
      <point x="671" y="690" type="line"/>
      <point x="400" y="690" type="line"/>
      <point x="400" y="393" type="line"/>
      <point x="629" y="393" type="line"/>
      <point x="629" y="363" type="line"/>
      <point x="400" y="363" type="line"/>
      <point x="400" y="30" type="line"/>
      <point x="681" y="30" type="line"/>
    </contour>
    <contour>
      <point x="362" y="30" type="line"/>
      <point x="362" y="690" type="line"/>
      <point x="287" y="690" type="line" smooth="yes"/>
      <point x="158" y="690"/>
      <point x="83" y="582"/>
      <point x="83" y="399" type="curve" smooth="yes"/>
      <point x="83" y="323" type="line" smooth="yes"/>
      <point x="83" y="138"/>
      <point x="156" y="30"/>
      <point x="291" y="30" type="curve" smooth="yes"/>
    </contour>
  </outline>
</glyph>
<glyph name="oe" format="1">
  <advance width="616"/>
  <unicode hex="0153"/>
  <outline>
    <contour>
      <point x="582" y="252" type="line"/>
      <point x="336" y="252" type="line"/>
      <point x="336" y="229" type="line" smooth="yes"/>
      <point x="336" y="98"/>
      <point x="384" y="20"/>
      <point x="457" y="20" type="curve" smooth="yes"/>
      <point x="498" y="20"/>
      <point x="530" y="41"/>
      <point x="558" y="77" type="curve"/>
      <point x="578" y="57" type="line"/>
      <point x="548" y="18"/>
      <point x="508" y="-10"/>
      <point x="456" y="-10" type="curve" smooth="yes"/>
      <point x="389" y="-10"/>
      <point x="343" y="43"/>
      <point x="324" y="134" type="curve"/>
      <point x="317" y="134" type="line"/>
      <point x="297" y="49"/>
      <point x="254" y="-10"/>
      <point x="187" y="-10" type="curve" smooth="yes"/>
      <point x="94" y="-10"/>
      <point x="37" y="96"/>
      <point x="37" y="238" type="curve" smooth="yes"/>
      <point x="37" y="274" type="line" smooth="yes"/>
      <point x="37" y="416"/>
      <point x="96" y="522"/>
      <point x="189" y="522" type="curve" smooth="yes"/>
      <point x="256" y="522"/>
      <point x="299" y="462"/>
      <point x="318" y="376" type="curve"/>
      <point x="324" y="376" type="line"/>
      <point x="342" y="463"/>
      <point x="384" y="522"/>
      <point x="446" y="522" type="curve" smooth="yes"/>
      <point x="530" y="522"/>
      <point x="582" y="415"/>
      <point x="582" y="254" type="curve" smooth="yes"/>
    </contour>
    <contour>
      <point x="547" y="280" type="line"/>
      <point x="544" y="398"/>
      <point x="506" y="495"/>
      <point x="446" y="495" type="curve" smooth="yes"/>
      <point x="377" y="495"/>
      <point x="336" y="403"/>
      <point x="336" y="284" type="curve" smooth="yes"/>
      <point x="336" y="280" type="line"/>
    </contour>
    <contour>
      <point x="306" y="231" type="curve" smooth="yes"/>
      <point x="306" y="281" type="line" smooth="yes"/>
      <point x="306" y="402"/>
      <point x="257" y="495"/>
      <point x="187" y="495" type="curve" smooth="yes"/>
      <point x="117" y="495"/>
      <point x="72" y="402"/>
      <point x="72" y="281" type="curve" smooth="yes"/>
      <point x="72" y="231" type="line" smooth="yes"/>
      <point x="72" y="110"/>
      <point x="119" y="17"/>
      <point x="189" y="17" type="curve" smooth="yes"/>
      <point x="259" y="17"/>
      <point x="306" y="110"/>
    </contour>
  </outline>
</glyph>
<glyph name="circumflex" format="1">
  <advance width="390"/>
  <unicode hex="02C6"/>
  <outline>
    <contour>
      <point x="302" y="572" type="line"/>
      <point x="280" y="572" type="line"/>
      <point x="194" y="661" type="line"/>
      <point x="109" y="572" type="line"/>
      <point x="88" y="572" type="line"/>
      <point x="178" y="694" type="line"/>
      <point x="213" y="694" type="line"/>
    </contour>
  </outline>
</glyph>
<glyph name="caron" format="1">
  <advance width="390"/>
  <unicode hex="02C7"/>
  <outline>
    <contour>
      <point x="302" y="699" type="line"/>
      <point x="213" y="577" type="line"/>
      <point x="178" y="577" type="line"/>
      <point x="88" y="699" type="line"/>
      <point x="110" y="699" type="line"/>
      <point x="196" y="610" type="line"/>
      <point x="282" y="699" type="line"/>
    </contour>
  </outline>
</glyph>
<glyph name="breve" format="1">
  <advance width="390"/>
  <unicode hex="02D8"/>
  <outline>
    <contour>
      <point x="298" y="699" type="line"/>
      <point x="294" y="621"/>
      <point x="257" y="574"/>
      <point x="195" y="574" type="curve" smooth="yes"/>
      <point x="134" y="574"/>
      <point x="96" y="621"/>
      <point x="92" y="699" type="curve"/>
      <point x="115" y="699" type="line"/>
      <point x="122" y="638"/>
      <point x="151" y="611"/>
      <point x="195" y="611" type="curve" smooth="yes"/>
      <point x="239" y="611"/>
      <point x="268" y="638"/>
      <point x="276" y="699" type="curve"/>
    </contour>
  </outline>
</glyph>
<glyph name="ogonek" format="1">
  <advance width="390"/>
  <unicode hex="02DB"/>
  <outline>
    <contour>
      <point x="286" y="-121" type="line"/>
      <point x="255" y="-138"/>
      <point x="224" y="-149"/>
      <point x="194" y="-149" type="curve" smooth="yes"/>
      <point x="151" y="-149"/>
      <point x="121" y="-128"/>
      <point x="121" y="-90" type="curve" smooth="yes"/>
      <point x="121" y="-56"/>
      <point x="152" y="-23"/>
      <point x="188" y="0" type="curve"/>
      <point x="213" y="0" type="line"/>
      <point x="178" y="-26"/>
      <point x="156" y="-57"/>
      <point x="156" y="-86" type="curve" smooth="yes"/>
      <point x="156" y="-109"/>
      <point x="174" y="-125"/>
      <point x="199" y="-125" type="curve" smooth="yes"/>
      <point x="227" y="-125"/>
      <point x="250" y="-118"/>
      <point x="278" y="-106" type="curve"/>
    </contour>
  </outline>
</glyph>
<glyph name="tilde" format="1">
  <advance width="390"/>
  <unicode hex="02DC"/>
  <outline>
    <contour>
      <point x="311" y="653" type="line"/>
      <point x="311" y="602"/>
      <point x="292" y="578"/>
      <point x="253" y="578" type="curve" smooth="yes"/>
      <point x="211" y="578"/>
      <point x="167" y="623"/>
      <point x="135" y="623" type="curve" smooth="yes"/>
      <point x="112" y="623"/>
      <point x="102" y="607"/>
      <point x="102" y="580" type="curve"/>
      <point x="79" y="580" type="line"/>
      <point x="79" y="631"/>
      <point x="99" y="655"/>
      <point x="138" y="655" type="curve" smooth="yes"/>
      <point x="180" y="655"/>
      <point x="224" y="610"/>
      <point x="256" y="610" type="curve" smooth="yes"/>
      <point x="279" y="610"/>
      <point x="288" y="626"/>
      <point x="288" y="653" type="curve"/>
    </contour>
  </outline>
</glyph>
<glyph name="endash" format="1">
  <advance width="392"/>
  <unicode hex="2013"/>
  <outline>
    <contour>
      <point x="361" y="262" type="line"/>
      <point x="31" y="262" type="line"/>
      <point x="31" y="294" type="line"/>
      <point x="361" y="294" type="line"/>
    </contour>
  </outline>
</glyph>
<glyph name="emdash" format="1">
  <advance width="785"/>
  <unicode hex="2014"/>
  <outline>
    <contour>
      <point x="754" y="262" type="line"/>
      <point x="31" y="262" type="line"/>
      <point x="31" y="294" type="line"/>
      <point x="754" y="294" type="line"/>
    </contour>
  </outline>
</glyph>
<glyph name="quoteleft" format="1">
  <advance width="130"/>
  <unicode hex="2018"/>
  <unicode hex="02BB"/>
  <outline>
    <contour>
      <point x="104" y="537" type="line"/>
      <point x="87" y="537" type="line"/>
      <point x="29" y="720" type="line"/>
      <point x="71" y="720" type="line"/>
    </contour>
  </outline>
</glyph>
<glyph name="quoteright" format="1">
  <advance width="140"/>
  <unicode hex="2019"/>
  <unicode hex="02BC"/>
  <outline>
    <contour>
      <point x="111" y="720" type="line"/>
      <point x="53" y="537" type="line"/>
      <point x="36" y="537" type="line"/>
      <point x="69" y="720" type="line"/>
    </contour>
  </outline>
</glyph>
<glyph name="quotesinglbase" format="1">
  <advance width="140"/>
  <unicode hex="201A"/>
  <outline>
    <contour>
      <point x="100" y="75" type="line"/>
      <point x="42" y="-108" type="line"/>
      <point x="25" y="-108" type="line"/>
      <point x="58" y="75" type="line"/>
    </contour>
  </outline>
</glyph>
<glyph name="quotedblleft" format="1">
  <advance width="250"/>
  <unicode hex="201C"/>
  <outline>
    <contour>
      <point x="214" y="537" type="line"/>
      <point x="197" y="537" type="line"/>
      <point x="139" y="720" type="line"/>
      <point x="181" y="720" type="line"/>
    </contour>
    <contour>
      <point x="104" y="537" type="line"/>
      <point x="87" y="537" type="line"/>
      <point x="29" y="720" type="line"/>
      <point x="71" y="720" type="line"/>
    </contour>
  </outline>
</glyph>
<glyph name="quotedblright" format="1">
  <advance width="250"/>
  <unicode hex="201D"/>
  <outline>
    <contour>
      <point x="221" y="720" type="line"/>
      <point x="163" y="537" type="line"/>
      <point x="146" y="537" type="line"/>
      <point x="179" y="720" type="line"/>
    </contour>
    <contour>
      <point x="111" y="720" type="line"/>
      <point x="53" y="537" type="line"/>
      <point x="36" y="537" type="line"/>
      <point x="69" y="720" type="line"/>
    </contour>
  </outline>
</glyph>
<glyph name="daggerdbl" format="1">
  <advance width="352"/>
  <unicode hex="2021"/>
  <outline>
    <contour>
      <point x="312" y="188" type="line"/>
      <point x="185" y="197" type="line"/>
      <point x="196" y="0" type="line"/>
      <point x="154" y="0" type="line"/>
      <point x="165" y="197" type="line"/>
      <point x="38" y="188" type="line"/>
      <point x="38" y="223" type="line"/>
      <point x="165" y="215" type="line"/>
      <point x="154" y="360" type="line"/>
      <point x="165" y="505" type="line"/>
      <point x="38" y="497" type="line"/>
      <point x="38" y="532" type="line"/>
      <point x="165" y="523" type="line"/>
      <point x="154" y="720" type="line"/>
      <point x="196" y="720" type="line"/>
      <point x="185" y="523" type="line"/>
      <point x="312" y="532" type="line"/>
      <point x="312" y="497" type="line"/>
      <point x="185" y="505" type="line"/>
      <point x="196" y="360" type="line"/>
      <point x="185" y="215" type="line"/>
      <point x="312" y="223" type="line"/>
    </contour>
  </outline>
</glyph>
<glyph name="ellipsis" format="1">
  <advance width="450"/>
  <unicode hex="2026"/>
  <outline>
    <contour>
      <point x="412" y="25" type="curve" smooth="yes"/>
      <point x="412" y="6"/>
      <point x="399" y="-7"/>
      <point x="380" y="-7" type="curve" smooth="yes"/>
      <point x="361" y="-7"/>
      <point x="348" y="6"/>
      <point x="348" y="25" type="curve" smooth="yes"/>
      <point x="348" y="44"/>
      <point x="361" y="57"/>
      <point x="380" y="57" type="curve" smooth="yes"/>
      <point x="399" y="57"/>
      <point x="412" y="44"/>
    </contour>
    <contour>
      <point x="257" y="25" type="curve" smooth="yes"/>
      <point x="257" y="6"/>
      <point x="244" y="-7"/>
      <point x="225" y="-7" type="curve" smooth="yes"/>
      <point x="206" y="-7"/>
      <point x="193" y="6"/>
      <point x="193" y="25" type="curve" smooth="yes"/>
      <point x="193" y="44"/>
      <point x="206" y="57"/>
      <point x="225" y="57" type="curve" smooth="yes"/>
      <point x="244" y="57"/>
      <point x="257" y="44"/>
    </contour>
    <contour>
      <point x="102" y="25" type="curve" smooth="yes"/>
      <point x="102" y="6"/>
      <point x="89" y="-7"/>
      <point x="70" y="-7" type="curve" smooth="yes"/>
      <point x="51" y="-7"/>
      <point x="38" y="6"/>
      <point x="38" y="25" type="curve" smooth="yes"/>
      <point x="38" y="44"/>
      <point x="51" y="57"/>
      <point x="70" y="57" type="curve" smooth="yes"/>
      <point x="89" y="57"/>
      <point x="102" y="44"/>
    </contour>
  </outline>
</glyph>
<glyph name="guilsinglleft" format="1">
  <advance width="200"/>
  <unicode hex="2039"/>
  <outline>
    <contour>
      <point x="169" y="80" type="line"/>
      <point x="142" y="80" type="line"/>
      <point x="20" y="256" type="line"/>
      <point x="142" y="432" type="line"/>
      <point x="169" y="432" type="line"/>
      <point x="67" y="256" type="line"/>
    </contour>
  </outline>
</glyph>
<glyph name="fraction" format="1">
  <advance width="284"/>
  <unicode hex="2044"/>
  <outline>
    <contour>
      <point x="309" y="735" type="line"/>
      <point x="9" y="-15" type="line"/>
      <point x="-24" y="-15" type="line"/>
      <point x="276" y="735" type="line"/>
    </contour>
  </outline>
</glyph>
<glyph name="Euro" format="1">
  <advance width="445"/>
  <unicode hex="20AC"/>
  <outline>
    <contour>
      <point x="413" y="200" type="line"/>
      <point x="388" y="74"/>
      <point x="339" y="-12"/>
      <point x="234" y="-12" type="curve" smooth="yes"/>
      <point x="114" y="-12"/>
      <point x="45" y="121"/>
      <point x="45" y="321" type="curve" smooth="yes"/>
      <point x="45" y="397" type="line" smooth="yes"/>
      <point x="45" y="598"/>
      <point x="115" y="732"/>
      <point x="233" y="732" type="curve" smooth="yes"/>
      <point x="329" y="732"/>
      <point x="383" y="658"/>
      <point x="408" y="537" type="curve"/>
      <point x="374" y="524" type="line"/>
      <point x="351" y="634"/>
      <point x="311" y="702"/>
      <point x="233" y="702" type="curve" smooth="yes"/>
      <point x="143" y="702"/>
      <point x="92" y="595"/>
      <point x="83" y="446" type="curve"/>
      <point x="268" y="446" type="line"/>
      <point x="268" y="415" type="line"/>
      <point x="82" y="415" type="line"/>
      <point x="82" y="295" type="line"/>
      <point x="268" y="295" type="line"/>
      <point x="268" y="264" type="line"/>
      <point x="84" y="264" type="line"/>
      <point x="95" y="121"/>
      <point x="146" y="18"/>
      <point x="236" y="18" type="curve" smooth="yes"/>
      <point x="315" y="18"/>
      <point x="354" y="87"/>
      <point x="380" y="210" type="curve"/>
    </contour>
  </outline>
</glyph>
<glyph name="uni2117" format="1">
  <advance width="659"/>
  <unicode hex="2117"/>
  <outline>
    <contour>
      <point x="622" y="360" type="curve" smooth="yes"/>
      <point x="622" y="146"/>
      <point x="501" y="-12"/>
      <point x="330" y="-12" type="curve" smooth="yes"/>
      <point x="159" y="-12"/>
      <point x="38" y="146"/>
      <point x="38" y="360" type="curve" smooth="yes"/>
      <point x="38" y="574"/>
      <point x="159" y="732"/>
      <point x="330" y="732" type="curve" smooth="yes"/>
      <point x="501" y="732"/>
      <point x="622" y="574"/>
    </contour>
    <contour>
      <point x="594" y="360" type="curve" smooth="yes"/>
      <point x="594" y="561"/>
      <point x="487" y="708"/>
      <point x="330" y="708" type="curve" smooth="yes"/>
      <point x="172" y="708"/>
      <point x="66" y="561"/>
      <point x="66" y="360" type="curve" smooth="yes"/>
      <point x="66" y="159"/>
      <point x="172" y="12"/>
      <point x="330" y="12" type="curve" smooth="yes"/>
      <point x="487" y="12"/>
      <point x="594" y="159"/>
    </contour>
    <contour>
      <point x="454" y="444" type="curve" smooth="yes"/>
      <point x="454" y="369"/>
      <point x="412" y="326"/>
      <point x="332" y="326" type="curve" smooth="yes"/>
      <point x="289" y="326" type="line"/>
      <point x="289" y="161" type="line"/>
      <point x="255" y="161" type="line"/>
      <point x="255" y="562" type="line"/>
      <point x="334" y="562" type="line" smooth="yes"/>
      <point x="411" y="562"/>
      <point x="454" y="519"/>
    </contour>
    <contour>
      <point x="418" y="443" type="curve" smooth="yes"/>
      <point x="418" y="499"/>
      <point x="390" y="531"/>
      <point x="335" y="531" type="curve" smooth="yes"/>
      <point x="289" y="531" type="line"/>
      <point x="289" y="356" type="line"/>
      <point x="337" y="356" type="line" smooth="yes"/>
      <point x="390" y="356"/>
      <point x="418" y="386"/>
    </contour>
  </outline>
</glyph>
<glyph name="trademark" format="1">
  <advance width="510"/>
  <unicode hex="2122"/>
  <outline>
    <contour>
      <point x="470" y="465" type="line"/>
      <point x="443" y="465" type="line"/>
      <point x="443" y="686" type="line"/>
      <point x="441" y="686" type="line"/>
      <point x="372" y="465" type="line"/>
      <point x="340" y="465" type="line"/>
      <point x="271" y="686" type="line"/>
      <point x="269" y="686" type="line"/>
      <point x="269" y="465" type="line"/>
      <point x="243" y="465" type="line"/>
      <point x="243" y="720" type="line"/>
      <point x="290" y="720" type="line"/>
      <point x="357" y="500" type="line"/>
      <point x="359" y="500" type="line"/>
      <point x="426" y="720" type="line"/>
      <point x="470" y="720" type="line"/>
    </contour>
    <contour>
      <point x="196" y="696" type="line"/>
      <point x="123" y="696" type="line"/>
      <point x="123" y="465" type="line"/>
      <point x="95" y="465" type="line"/>
      <point x="95" y="696" type="line"/>
      <point x="22" y="696" type="line"/>
      <point x="22" y="720" type="line"/>
      <point x="196" y="720" type="line"/>
    </contour>
  </outline>
</glyph>
<glyph name="radical" format="1">
  <advance width="432"/>
  <unicode hex="221A"/>
  <outline>
    <contour>
      <point x="404" y="720" type="line"/>
      <point x="193" y="-3" type="line"/>
      <point x="158" y="-3" type="line"/>
      <point x="36" y="340" type="line"/>
      <point x="75" y="340" type="line"/>
      <point x="175" y="46" type="line"/>
      <point x="366" y="720" type="line"/>
    </contour>
  </outline>
</glyph>
<glyph name="bullet" format="1">
  <advance width="268"/>
  <outline>
    <contour>
      <point x="218" y="373" type="curve" smooth="yes"/>
      <point x="218" y="326"/>
      <point x="182" y="289"/>
      <point x="134" y="289" type="curve" smooth="yes"/>
      <point x="87" y="289"/>
      <point x="50" y="326"/>
      <point x="50" y="373" type="curve" smooth="yes"/>
      <point x="50" y="420"/>
      <point x="87" y="457"/>
      <point x="134" y="457" type="curve" smooth="yes"/>
      <point x="182" y="457"/>
      <point x="218" y="420"/>
    </contour>
  </outline>
</glyph>
<glyph name="macron" format="1">
  <advance width="390"/>
  <outline>
    <contour>
      <point x="302" y="618" type="line"/>
      <point x="88" y="618" type="line"/>
      <point x="88" y="651" type="line"/>
      <point x="302" y="651" type="line"/>
    </contour>
  </outline>
</glyph>
<glyph name="registered.big" format="1">
  <advance width="659"/>
  <outline>
    <contour>
      <point x="622" y="360" type="curve" smooth="yes"/>
      <point x="622" y="146"/>
      <point x="501" y="-12"/>
      <point x="330" y="-12" type="curve" smooth="yes"/>
      <point x="159" y="-12"/>
      <point x="38" y="146"/>
      <point x="38" y="360" type="curve" smooth="yes"/>
      <point x="38" y="574"/>
      <point x="159" y="732"/>
      <point x="330" y="732" type="curve" smooth="yes"/>
      <point x="501" y="732"/>
      <point x="622" y="574"/>
    </contour>
    <contour>
      <point x="594" y="360" type="curve" smooth="yes"/>
      <point x="594" y="561"/>
      <point x="487" y="708"/>
      <point x="330" y="708" type="curve" smooth="yes"/>
      <point x="172" y="708"/>
      <point x="66" y="561"/>
      <point x="66" y="360" type="curve" smooth="yes"/>
      <point x="66" y="159"/>
      <point x="172" y="12"/>
      <point x="330" y="12" type="curve" smooth="yes"/>
      <point x="487" y="12"/>
      <point x="594" y="159"/>
    </contour>
    <contour>
      <point x="455" y="164" type="line"/>
      <point x="415" y="164" type="line"/>
      <point x="321" y="341" type="line"/>
      <point x="274" y="341" type="line"/>
      <point x="274" y="164" type="line"/>
      <point x="240" y="164" type="line"/>
      <point x="240" y="565" type="line"/>
      <point x="327" y="565" type="line" smooth="yes"/>
      <point x="397" y="565"/>
      <point x="444" y="527"/>
      <point x="444" y="454" type="curve" smooth="yes"/>
      <point x="444" y="388"/>
      <point x="408" y="354"/>
      <point x="358" y="344" type="curve"/>
    </contour>
    <contour>
      <point x="408" y="453" type="curve" smooth="yes"/>
      <point x="408" y="508"/>
      <point x="379" y="535"/>
      <point x="325" y="535" type="curve" smooth="yes"/>
      <point x="274" y="535" type="line"/>
      <point x="274" y="371" type="line"/>
      <point x="327" y="371" type="line" smooth="yes"/>
      <point x="379" y="371"/>
      <point x="408" y="394"/>
    </contour>
  </outline>
</glyph>
<glyph name="registered" format="1">
  <advance width="334"/>
  <outline>
    <contour>
      <point x="307" y="586" type="curve" smooth="yes"/>
      <point x="307" y="507"/>
      <point x="247" y="446"/>
      <point x="167" y="446" type="curve" smooth="yes"/>
      <point x="88" y="446"/>
      <point x="27" y="507"/>
      <point x="27" y="586" type="curve" smooth="yes"/>
      <point x="27" y="666"/>
      <point x="87" y="727"/>
      <point x="167" y="727" type="curve" smooth="yes"/>
      <point x="246" y="727"/>
      <point x="307" y="666"/>
    </contour>
    <contour>
      <point x="290" y="586" type="curve" smooth="yes"/>
      <point x="290" y="657"/>
      <point x="237" y="711"/>
      <point x="167" y="711" type="curve" smooth="yes"/>
      <point x="96" y="711"/>
      <point x="44" y="657"/>
      <point x="44" y="586" type="curve" smooth="yes"/>
      <point x="44" y="516"/>
      <point x="97" y="462"/>
      <point x="167" y="462" type="curve" smooth="yes"/>
      <point x="238" y="462"/>
      <point x="290" y="516"/>
    </contour>
    <contour>
      <point x="235" y="510" type="line"/>
      <point x="206" y="510" type="line"/>
      <point x="159" y="578" type="line"/>
      <point x="142" y="578" type="line"/>
      <point x="142" y="510" type="line"/>
      <point x="120" y="510" type="line"/>
      <point x="120" y="668" type="line"/>
      <point x="169" y="668" type="line" smooth="yes"/>
      <point x="202" y="668"/>
      <point x="224" y="653"/>
      <point x="224" y="623" type="curve" smooth="yes"/>
      <point x="224" y="598"/>
      <point x="209" y="583"/>
      <point x="187" y="578" type="curve"/>
    </contour>
    <contour>
      <point x="201" y="623" type="curve" smooth="yes"/>
      <point x="201" y="639"/>
      <point x="189" y="647"/>
      <point x="168" y="647" type="curve" smooth="yes"/>
      <point x="142" y="647" type="line"/>
      <point x="142" y="596" type="line"/>
      <point x="169" y="596" type="line" smooth="yes"/>
      <point x="189" y="596"/>
      <point x="201" y="606"/>
    </contour>
  </outline>
</glyph>
